<?xml version="1.0" encoding="UTF-8" standalone="no"?>
<!-- Created with Inkscape (http://www.inkscape.org/) -->

<svg
   xmlns:dc="http://purl.org/dc/elements/1.1/"
   xmlns:cc="http://creativecommons.org/ns#"
   xmlns:rdf="http://www.w3.org/1999/02/22-rdf-syntax-ns#"
   xmlns:svg="http://www.w3.org/2000/svg"
   xmlns="http://www.w3.org/2000/svg"
   xmlns:sodipodi="http://sodipodi.sourceforge.net/DTD/sodipodi-0.dtd"
   xmlns:inkscape="http://www.inkscape.org/namespaces/inkscape"
   id="svg2876"
   version="1.1"
   inkscape:version="0.47 r22583"
   width="300"
   height="243"
   sodipodi:docname="Conquering_Lion_of_the_Tribe_of_Judah.png">
  <metadata
     id="metadata2882">
    <rdf:RDF>
      <cc:Work
         rdf:about="">
        <dc:format>image/svg+xml</dc:format>
        <dc:type
           rdf:resource="http://purl.org/dc/dcmitype/StillImage" />
        <dc:title></dc:title>
      </cc:Work>
    </rdf:RDF>
  </metadata>
  <defs
     id="defs2880">
    <inkscape:perspective
       sodipodi:type="inkscape:persp3d"
       inkscape:vp_x="0 : 0.5 : 1"
       inkscape:vp_y="0 : 1000 : 0"
       inkscape:vp_z="1 : 0.5 : 1"
       inkscape:persp3d-origin="0.5 : 0.33333333 : 1"
       id="perspective2884" />
  </defs>
  <sodipodi:namedview
     pagecolor="#ffffff"
     bordercolor="#666666"
     borderopacity="1"
     objecttolerance="10"
     gridtolerance="10"
     guidetolerance="10"
     inkscape:pageopacity="0"
     inkscape:pageshadow="2"
     inkscape:window-width="640"
     inkscape:window-height="484"
     id="namedview2878"
     showgrid="false"
     inkscape:zoom="0.97119342"
     inkscape:cx="150"
     inkscape:cy="121.5"
     inkscape:window-x="0"
     inkscape:window-y="0"
     inkscape:window-maximized="0"
     inkscape:current-layer="svg2876" />
  <path
     style="fill:#000000"
     d="m 155.87244,235.30804 c -0.94705,-1.16753 -0.98281,-1.45784 -0.11538,-0.93662 0.75259,0.45221 1.49783,0.12794 1.85699,-0.80804 0.32996,-0.85986 1.01762,-1.56338 1.52812,-1.56338 0.52354,0 0.46156,0.87193 -0.14217,2 -0.7257,1.35599 -0.73703,2 -0.0352,2 0.56935,0 1.03518,-0.40777 1.03518,-0.90616 0,-0.49839 2.25,-1.21562 5,-1.59384 2.75,-0.37822 5,-1.07249 5,-1.54281 0,-0.47033 1.64034,-0.16976 3.6452,0.66792 3.00194,1.25429 3.80947,1.28941 4.57613,0.19898 0.72986,-1.0381 1.04048,-1.0541 1.43813,-0.0741 0.60787,1.49808 4.96171,1.67198 5.85062,0.23369 0.34546,-0.55897 1.06473,-0.74647 1.59836,-0.41667 1.67892,1.03763 9.92396,0.65098 11.34966,-0.53224 1.01701,-0.84405 1.54543,-0.83809 2.07787,0.0234 0.52152,0.84383 0.94995,0.78952 1.58903,-0.20144 0.55584,-0.86188 1.14856,-0.99201 1.625,-0.35676 0.70688,0.9425 1.46247,1.01245 7,0.64806 2.4716,-0.16264 3.16482,-2.14806 0.75,-2.14806 -0.93333,0 -1.5,-0.94444 -1.5,-2.5 0,-1.94675 -0.49792,-2.48445 -2.25,-2.42971 -1.62367,0.0507 -1.83245,0.25949 -0.75,0.75 0.825,0.37384 1.54918,1.38732 1.6093,2.25218 0.0896,1.289 -1.03708,1.54911 -6.25,1.44294 -3.49762,-0.0712 -6.3593,0.18536 -6.3593,0.57022 0,0.38485 -2.475,0.64937 -5.5,0.58782 -4.6848,-0.0953 -5.5,-0.39171 -5.5,-1.99967 0,-1.1922 0.50735,-1.69307 1.37696,-1.35937 1.07589,0.41286 1.22021,-0.16663 0.66005,-2.65029 -0.3943,-1.74828 -1.34016,-4.17668 -2.10192,-5.39645 -1.17358,-1.8792 -1.17555,-2.41238 -0.0129,-3.49271 1.13414,-1.05382 1.26187,-0.96242 0.73641,0.52698 -0.3763,1.06663 -0.23413,1.55374 0.34841,1.19371 0.54127,-0.33452 2.07332,0.56703 3.40455,2.00346 2.17349,2.34523 2.47438,2.42749 2.94924,0.80628 0.29085,-0.99296 0.4379,0.33211 0.32679,2.94461 -0.11969,2.8141 0.23116,4.75 0.86086,4.75 0.58459,0 1.08653,-1.0125 1.11542,-2.25 0.12466,-5.34088 0.39158,-6.75 1.2786,-6.75 0.51838,0 1.08088,1.9125 1.25,4.25 0.28391,3.92397 0.54095,4.27286 3.35064,4.54793 2.74505,0.26875 3.03892,0.0239 3,-2.5 -0.0265,-1.72183 0.43762,-2.70178 1.20686,-2.54793 0.6875,0.1375 1.25,-0.18588 1.25,-0.71862 0,-0.53273 0.6801,-0.70763 1.51134,-0.38865 1.08145,0.41499 1.33546,0.12161 0.89301,-1.03139 C 208.06427,219.7251 208.28417,219 208.89301,219 c 0.60885,0 1.11388,1.2375 1.1223,2.75 0.008,1.5125 0.43532,3.41417 0.94865,4.22593 0.76218,1.20526 1.11452,1.02188 1.9213,-1 l 0.98797,-2.47593 0.0634,2.66667 c 0.0349,1.46666 0.62589,2.89364 1.31339,3.17105 1,0.40351 1,0.52017 0,0.58333 -0.6875,0.0434 -1.25,0.70325 -1.25,1.46628 0,1.13432 2.32529,1.30451 12.75,0.93317 7.0125,-0.24979 13.7402,-0.43097 14.95044,-0.40263 3.41447,0.0799 3.64321,-1.64043 0.28367,-2.13351 -1.64752,-0.2418 -3.25542,-0.17971 -3.5731,0.138 -0.31769,0.3177 -3.8972,0.60214 -7.95446,0.63208 -5.4133,0.04 -7.125,-0.249 -6.4307,-1.08558 1.34837,-1.62469 -4.58281,-8.06208 -7.05918,-7.66166 -1.37682,0.22262 -2.07936,-0.46563 -2.55188,-2.5 -1.24617,-5.36519 -18.31466,-32.074 -19.64621,-30.74245 -0.27388,0.27389 -1.50477,0.69186 -2.7353,0.92884 -1.23054,0.23698 -2.84102,0.93188 -3.57885,1.54423 -1.05297,0.87388 -1.30789,0.66691 -1.18517,-0.96223 0.086,-1.14157 0.51059,-2.07559 0.94354,-2.07559 0.43296,0 0.7872,-0.42704 0.7872,-0.94897 0,-0.52194 -1.48172,-0.32987 -3.29271,0.4268 -3.08789,1.29021 -3.30227,1.2489 -3.44636,-0.66405 -0.2144,-2.84618 -0.51633,-2.96931 -4.1634,-1.69793 -4.60103,1.60392 -9.66494,0.47115 -13.68922,-3.06221 C 162.49546,179.37414 160.25314,178 159.42537,178 c -0.82778,0 -3.26919,-0.9 -5.42537,-2 -5.65965,-2.88734 -6.20368,-2.65758 -5.64909,2.38581 0.44139,4.01394 0.0654,4.95764 -4.43431,11.12977 -2.70413,3.70917 -4.9166,7.8038 -4.9166,9.09916 0,3.16878 5.4338,11.82699 8.19601,13.05952 1.38434,0.61771 3.92714,0.6582 6.76138,0.10766 8.52215,-1.65539 16.34984,5.03846 13.06636,11.1737 -0.61017,1.14011 -0.75263,2.01322 -0.31657,1.94023 0.43605,-0.073 1.01782,-0.0348 1.29282,0.0849 0.78873,0.34328 6.30975,1.06886 8.36303,1.09908 2.60548,0.0384 3.13372,-0.77638 1.65703,-2.55568 -1.51901,-1.8303 0.006,-2.04318 1.96339,-0.27417 0.83858,0.7577 0.71135,0.16693 -0.32306,-1.5 -0.93857,-1.5125 -1.44878,-2.75 -1.13378,-2.75 1.50978,0 6.47339,3.18066 6.47339,4.14812 0,0.72986 -0.50181,0.6803 -1.5,-0.14812 -0.94589,-0.78502 -1.5,-0.85205 -1.5,-0.18146 0,0.58488 0.45,1.34154 1,1.68146 0.55,0.33992 1,1.40249 1,2.36127 0,1.40684 -0.82013,1.71538 -4.25,1.59889 -2.3375,-0.0794 -5.2625,0.22345 -6.5,0.67299 -1.46323,0.53154 -2.25,0.43351 -2.25,-0.28035 0,-0.79504 -0.36344,-0.79606 -1.31815,-0.004 -0.97536,0.80948 -1.93134,0.66447 -3.67607,-0.55759 -2.24425,-1.57193 -2.32265,-1.55963 -1.62633,0.25495 0.60534,1.5775 0.26295,1.47914 -1.98406,-0.56997 -2.02683,-1.84832 -2.55617,-2.03259 -2.0869,-0.72647 0.51872,1.44377 0.0419,1.75 -2.72486,1.75 -2.5037,0 -3.78316,-0.65557 -5.04852,-2.58676 -0.9322,-1.42272 -1.94808,-2.3336 -2.25751,-2.02417 -0.30943,0.30943 0.007,1.24847 0.70234,2.08676 1.22575,1.47693 0.0486,2.21937 -1.33118,0.83959 -0.99819,-0.99819 -6.64059,-1.11123 -6.02846,-0.12077 0.28484,0.46089 1.00633,0.5361 1.60331,0.16715 0.64308,-0.39745 0.79815,-0.20602 0.38051,0.46973 -0.38769,0.6273 -1.69472,0.95527 -2.90451,0.72882 -1.20978,-0.22645 -2.42461,-0.44434 -2.69961,-0.48419 -1.09809,-0.15913 -38.96701,-1.10863 -45.7314,-1.14664 -5.712402,-0.0321 -7.438976,-0.39656 -8.219592,-1.73508 -0.920225,-1.5779 -0.990282,-1.57408 -1.018599,0.0556 -0.02488,1.43205 -0.949565,1.75 -5.089426,1.75 -3.333287,0 -4.833821,-0.36437 -4.398849,-1.06817 0.363092,-0.5875 1.270322,-0.83404 2.016067,-0.54787 1.066906,0.40941 1.150391,-0.0202 0.391696,-2.01574 -0.530313,-1.39483 -0.70011,-2.96337 -0.377327,-3.48564 0.594888,-0.96255 3.653998,2.36885 4.699154,5.11742 0.32772,0.86185 0.603968,0.30494 0.649329,-1.30902 C 82.966976,222.05699 82.581695,221.14049 82,221.5 c -1.480682,0.91511 -1.21254,-0.83674 0.468197,-3.05887 1.398693,-1.84924 1.473439,-1.79911 1.578947,1.05887 l 0.110751,3 1.006463,-2.75623 C 86.523488,216.02175 88,217.22729 88,222.05902 88,224.3116 88.481975,226 89.125,226 c 0.739976,0 0.895737,-1.11229 0.455117,-3.25 -0.368435,-1.7875 -0.901856,-5.05 -1.185379,-7.25 -0.283523,-2.2 -0.732691,-4.64977 -0.998151,-5.44393 -0.345176,-1.03265 0.08244,-0.93253 1.501246,0.35147 1.649832,1.49308 1.886208,2.62027 1.403743,6.69393 C 89.906267,220.43924 90.084416,222 90.860709,222 91.487319,222 92,222.9 92,224 c 0,1.1 0.407871,2 0.90638,2 1.082687,0 0.230039,-3.79765 -1.027087,-4.5746 C 90.678756,220.68343 90.760234,215 91.971408,215 c 0.534275,0 1.39369,-1.4625 1.909812,-3.25 0.860909,-2.98161 0.945851,-3.03667 1.028592,-0.66667 0.0496,1.42084 0.39134,2.88449 0.759414,3.25256 1.161805,1.16181 1.50555,7.89016 0.367156,7.1866 C 95.466372,221.1702 95,219.46852 95,217.74098 c 0,-2.44393 -0.266449,-2.87453 -1.200652,-1.94033 -1.912302,1.9123 1.471292,10.10142 4.207858,10.18404 0.278963,0.008 0.338257,-2.10895 0.131763,-4.70526 -0.338503,-4.25613 -0.216228,-4.58844 1.242794,-3.37756 C 100.75966,219.04542 101,219.00392 101,217.62244 101,216.7301 101.45,216 102,216 c 0.55,0 1,2.175 1,4.83333 0,3.62963 0.37356,4.83334 1.5,4.83334 1.70211,0 1.99499,-1.24271 0.50929,-2.16093 -0.5449,-0.33676 -0.92186,-2.36974 -0.83769,-4.51772 0.18298,-4.66963 1.48765,-4.3213 2.41952,0.64598 0.36772,1.96011 0.94764,3.149 1.28873,2.64198 0.34108,-0.50703 1.40765,-1.21242 2.37015,-1.56754 1.39079,-0.51314 1.75,-0.0979 1.75,2.02294 0,2.00946 0.28375,2.38487 1.14876,1.51986 0.865,-0.865 1.83366,-0.79457 3.92161,0.28515 2.14791,1.11073 2.88606,1.15552 3.27512,0.19876 0.37308,-0.91749 0.77507,-0.84938 1.56307,0.26485 0.58345,0.825 1.0746,1.05 1.09144,0.5 0.0168,-0.55 0.46684,-0.325 1,0.5 0.81534,1.26165 0.97181,1.20247 0.98469,-0.37244 0.0127,-1.55063 0.27312,-1.65849 1.51531,-0.62756 1.19672,0.99319 1.80328,0.99319 3,0 0.92394,-0.7668 1.5,-0.84163 1.5,-0.19485 0,0.97383 10.57346,0.95473 11.54906,-0.0209 0.21888,-0.21889 -0.67294,-1.97394 -1.98181,-3.90013 -1.54912,-2.27972 -3.79495,-3.96921 -6.43408,-4.8402 -4.50963,-1.48831 -9.20687,-5.634 -12.774,-11.27408 -2.89402,-4.57579 -2.93499,-6.1021 -0.27916,-10.39932 1.38456,-2.24027 1.89151,-4.28582 1.51622,-6.11804 -0.31007,-1.51388 -0.65747,-4.63817 -0.77199,-6.94287 -0.11452,-2.3047 -0.60839,-3.94304 -1.09749,-3.64076 -1.35467,0.83723 -6.76547,-4.70183 -8.67586,-8.88151 l -1.69692,-3.71263 -3.76343,4.93494 c -2.06988,2.71421 -5.30178,6.28562 -7.18199,7.93647 -5.412444,4.75219 -18.695149,10.55334 -34.366643,15.00944 -7.95195,2.26109 -15.212275,4.7936 -16.134054,5.6278 -2.218233,2.00748 -4.308906,9.68255 -3.507397,12.87602 0.683118,2.72176 2.030686,3.08757 5.922786,1.60779 3.282072,-1.24784 8.669476,2.9841 8.692071,6.82783 0.0085,1.4438 0.3428,2.1152 0.75,1.50622 1.181529,-1.76701 4.409762,-1.32628 3.775266,0.51542 -0.429897,1.24782 -0.25673,1.2125 0.81721,-0.16667 C 67.029039,219.60375 68,219.51188 68,221.5 c 0,0.825 0.498145,1.5 1.106989,1.5 0.608844,0 0.875478,-0.60331 0.59252,-1.34068 -0.282958,-0.73738 -0.141758,-1.94375 0.313777,-2.68082 0.565207,-0.91452 1.075494,-0.0918 1.606768,2.59069 0.778476,3.93057 0.778556,3.93063 1.339055,0.93081 0.663239,-3.54969 2.403191,-3.97136 2.867655,-0.69496 0.437928,3.08921 -1.457018,5.17079 -4.14125,4.54912 C 70.483481,226.07577 67.025,225.73535 64,225.59768 c -4.372849,-0.19902 -5.986562,0.17519 -7.874211,1.826 l -2.374211,2.07632 0.691599,-2.25 c 0.825264,-2.68486 -0.202419,-2.93537 -2.051131,-0.5 -1.249702,1.64628 -1.330324,1.63495 -1.360243,-0.19113 -0.03069,-1.87305 -0.07906,-1.87651 -1.37916,-0.0985 -0.93358,1.27675 -1.565909,1.489 -2.059017,0.69113 C 47.202213,226.51817 47.160081,225.55 47.5,225 c 0.339919,-0.55 0.127353,-1 -0.472368,-1 -0.599721,0 -1.349423,0.675 -1.666006,1.5 -0.812775,2.11806 -2.706968,1.87721 -1.966161,-0.25 0.580421,-1.66667 0.544552,-1.66667 -0.753254,0 -1.470964,1.88904 -4.202513,2.46561 -3.080551,0.65023 0.448482,-0.72566 -0.08496,-0.69054 -1.568157,0.10325 -1.799457,0.96304 -2.418905,0.93307 -3.105364,-0.15023 C 34.255486,224.85485 34.02661,224.82778 34.015313,225.75 34.006891,226.4375 32.875,227 31.5,227 c -2.533102,0 -3.340626,-1.36243 -1.486659,-2.50825 0.557338,-0.34445 2.384349,-0.66526 4.060024,-0.7129 1.675675,-0.0476 2.637146,-0.35487 2.136602,-0.68274 C 35.709424,222.76825 35.04294,221.825 34.728891,221 c -0.499981,-1.31344 -0.580815,-1.30948 -0.649944,0.0319 -0.04614,0.89537 -1.140314,1.61974 -2.633303,1.7433 -2.024763,0.16757 -2.770698,-0.40919 -3.597825,-2.78189 C 27.273911,218.34698 26.221516,217 25.509164,217 24.414206,217 23,214.96142 23,213.38303 c 0,-1.31062 3.961377,1.91992 4.522617,3.68823 0.387205,1.21997 1.225103,1.85579 2.0357,1.54474 0.757698,-0.29076 1.648138,-0.091 1.978756,0.44399 C 32.465501,220.56221 34,219.12718 34,216.75671 c 0,-1.16889 -0.938504,-4.06395 -2.085563,-6.43346 l -2.085564,-4.3082 1.987692,-6.75752 c 1.093231,-3.71664 2.536602,-8.88212 3.207492,-11.47884 1.253901,-4.8533 1.603796,-5.12095 8.129502,-6.21859 2.08005,-0.34987 5.956156,-2.42262 9,-4.81276 6.407725,-5.03157 6.516274,-5.17386 7.354202,-9.6404 0.648911,-3.45899 4.884795,-13.18147 7.888824,-18.10694 0.838607,-1.375 2.692876,-5.425 4.120597,-9 1.427721,-3.575 2.844942,-7.06608 3.149381,-7.75796 0.411544,-0.93529 -0.436587,-1.12309 -3.306519,-0.73216 -2.123024,0.2892 -8.666826,0.57854 -14.541782,0.64299 -9.838645,0.10793 -11.035436,-0.0901 -15.162973,-2.509 -6.461326,-3.78659 -9.008664,-8.36909 -8.443131,-15.18868 0.514673,-6.20628 1.750781,-7.90859 9.456879,-13.02361 7.229261,-4.798507 15.545425,-7.545133 22.830963,-7.540505 13.705629,0.0087 40.29369,3.547821 49.5,6.588905 l 4.5,1.48647 -5,-0.58605 c -2.75,-0.32232 -8.93274,-1.439772 -13.73941,-2.483221 C 90.673233,96.707385 83.321424,96.366161 92,98.49057 c 23.2171,5.68326 50.02583,8.00767 53.19565,4.61225 1.09803,-1.17617 0.98799,-1.26256 -0.69565,-0.54613 -3.03721,1.29242 -15.42865,1.6262 -20.5,0.5522 -3.49669,-0.74051 -2.27042,-0.83167 5.5,-0.40883 12.15694,0.66154 16.78971,-0.78116 18.94143,-5.898596 1.59353,-3.789893 0.64223,-6.46504 -2.74453,-7.717883 -2.56622,-0.949309 -5.45146,0.567759 -6.32716,3.326837 -0.55244,1.740582 -0.69324,1.762899 -1.54295,0.244556 -0.51427,-0.918948 -0.72924,-2.00475 -0.47771,-2.412894 0.25153,-0.408144 -1.86161,-0.769291 -4.69588,-0.802549 -5.2556,-0.06167 -10.70671,-2.020335 -11.37907,-4.088666 -0.20891,-0.64266 1.41572,-0.263874 3.68611,0.859425 3.1341,1.550633 4.91234,1.828817 7.79971,1.220175 L 136.5,86.64208 131,85.930858 c -3.025,-0.391172 -7.17305,-1.43564 -9.21788,-2.32104 -2.04484,-0.8854 -5.64484,-1.616709 -8,-1.625131 C 110.64891,81.973483 109.90246,81.709287 111,81 c 0.825,-0.533156 2.625,-1.029507 4,-1.103002 2.35365,-0.125805 2.32438,-0.183247 -0.5,-0.981272 -2.3288,-0.657996 -1.83026,-0.75451 2.22826,-0.431374 3.69798,0.294429 5.655,-0.01047 6.68624,-1.041712 0.88877,-0.888767 1.69706,-1.071157 2.07034,-0.467172 0.36614,0.592428 3.50787,0.766767 7.81376,0.433596 6.3472,-0.491118 7.73517,-0.268638 11.7014,1.875638 5.93008,3.206002 8.23547,7.526617 7.72247,14.472988 -0.49032,6.63922 -2.94804,9.4104 -10.43435,11.76514 -4.38231,1.3784 -7.43123,1.62052 -14.18512,1.12647 -4.73165,-0.34613 -9.728,-0.86091 -11.103,-1.14396 -1.375,-0.28305 -5.2,-1.00338 -8.5,-1.60073 -3.3,-0.59734 -7.8,-1.47569 -10,-1.95187 -20.221081,-4.376818 -36.325414,-4.215968 -46.918087,0.46862 -5.074403,2.24414 -11.433183,7.94429 -12.708709,11.39237 -1.141911,3.08687 1.741274,8.12724 5.562143,9.7237 5.05551,2.11233 10.880052,1.81333 22.666742,-1.16359 8.98948,-2.27044 11.633844,-2.5398 19.522329,-1.98864 7.632374,0.53326 10.166965,0.30391 15.500002,-1.40261 17.15437,-5.48922 38.38578,-7.41403 48.90765,-4.4339 9.8964,2.80299 16.96793,4.21666 16.96793,3.39208 0,-0.44622 1.53214,-1.36534 3.40474,-2.04249 2.14371,-0.77517 3.21522,-1.72508 2.89302,-2.56472 -0.3305,-0.86127 0.26398,-1.33356 1.67858,-1.33356 1.33004,0 2.01031,-0.49096 1.73199,-1.25 -0.25208,-0.6875 -1.07708,-1.07937 -1.83333,-0.87082 -6.27796,1.73123 -16.28865,0.73057 -13.00342,-1.29981 0.62063,-0.38357 1.12842,-0.22085 1.12842,0.36161 0,1.85464 7.32319,1.02733 12.47774,-1.40962 l 4.97775,-2.35336 1.27225,3.02581 c 1.58786,3.7764 1.60603,4.52996 0.0723,2.99619 -1.46021,-1.46021 -2.8,-1.55591 -2.8,-0.2 0,0.55 0.5625,0.8875 1.25,0.75 0.6875,-0.1375 1.11375,0.38376 0.94721,1.15836 -0.16653,0.7746 0.28347,1.82233 1,2.32829 0.88009,0.62145 0.40278,0.77581 -1.47108,0.47575 -1.52562,-0.2443 -3.01468,-0.0545 -3.30901,0.42171 -0.29434,0.47624 -0.0586,0.86589 0.52386,0.86589 0.58246,0 1.05902,0.37206 1.05902,0.82681 0,0.45474 -1.4625,0.64786 -3.25,0.42914 -2.49246,-0.30497 -2.90037,-0.15162 -1.75,0.65788 2.10537,1.48154 -15.9521,1.45108 -19.6849,-0.0332 -7.35525,-2.92468 -24.72855,-4.80008 -28.04158,-3.027 -0.97655,0.52263 -3.57509,1.08638 -5.77453,1.25277 -2.19945,0.16639 -5.34899,0.84206 -6.99899,1.50149 -1.65,0.65943 -4.575,1.45928 -6.5,1.77743 -1.925,0.31816 -4.625,0.83793 -6,1.15504 -1.375,0.31711 -3.049475,0.68724 -3.721056,0.8225 -0.67158,0.13526 -1.53408,0.55895 -1.916666,0.94154 -0.382586,0.38259 -1.858111,0.64237 -3.278945,0.5773 -2.471248,-0.11319 -2.453169,-0.14988 0.416667,-0.84562 1.65,-0.40002 -1.944793,-0.5723 -7.988428,-0.38286 -6.901458,0.21633 -12.852402,0.98053 -16,2.05467 -3.305038,1.12786 -8.268889,1.72417 -14.577326,1.75117 -8.505187,0.0364 -9.956647,-0.22632 -13.091407,-2.36972 -9.498095,-6.49432 -5.843176,-15.83248 9.135794,-23.34154 6.396588,-3.20669 6.658175,-3.2478 20.666203,-3.2478 7.803186,0 14.061692,-0.126109 13.907791,-0.280243 -0.399403,-0.400007 -5.798123,-1.04423 -15.164379,-1.809547 -6.37045,-0.520529 -9.268362,-0.287797 -13.5,1.084189 -10.956745,3.552411 -20.86683,10.885021 -22.206824,16.431141 -0.345792,1.4312 0.253228,4.37645 1.461225,7.18451 1.666283,3.87338 2.898421,5.15908 6.621181,6.90898 5.177483,2.4337 14.54729,3.00416 27.647623,1.68325 5.641667,-0.56884 8.114905,-0.46858 8.620486,0.34946 0.389946,0.63095 -0.557193,3.68992 -2.104754,6.79772 -1.54756,3.1078 -3.024101,6.77554 -3.281201,8.15054 -0.695666,3.7205 -1.772506,6.29331 -3.453011,8.25 -0.826644,0.9625 -1.177601,1.75 -0.779906,1.75 0.397695,0 -0.207561,1.30697 -1.345013,2.90437 C 66.930642,158.50177 66,160.25263 66,160.79517 c 0,1.70216 -3.697638,9.33143 -4.449838,9.18126 -0.394256,-0.0787 -1.016829,0.19155 -1.383495,0.60056 -0.366667,0.40901 -0.154568,0.45111 0.471331,0.0935 0.718292,-0.41035 1.319797,0.54475 1.630929,2.58967 0.629605,4.13809 0.05743,5.03534 -2.855882,4.47843 -1.293886,-0.24735 -2.114581,-0.0647 -1.823766,0.40583 C 57.880094,178.61501 57.246576,179 56.181462,179 c -1.065115,0 -2.489024,0.66566 -3.164242,1.47925 -1.556284,1.87521 -6.117915,4.16432 -9.995687,5.01602 -3.629661,0.79721 -3.901529,1.19483 -6.75908,9.88563 -2.692305,8.18822 -2.776412,9.90507 -0.644628,13.15858 0.889803,1.35801 1.592491,4.3047 1.561529,6.54819 -0.04055,2.93802 0.304961,3.94046 1.235123,3.58352 0.71028,-0.27256 2.028188,0.36492 2.928683,1.41662 0.900496,1.05171 2.14677,1.91219 2.769497,1.91219 0.817443,0 0.802213,-0.39765 -0.05478,-1.43026 -0.943888,-1.13732 -0.810064,-1.632 0.653378,-2.41521 2.075839,-1.11095 5.7135,0.34918 4.750759,1.90693 -0.319027,0.5162 -0.05101,0.93854 0.595599,0.93854 0.698209,0 0.954861,-0.84429 0.631981,-2.07899 -0.415783,-1.58996 -0.174719,-1.93741 1.024812,-1.47711 1.272846,0.48844 1.341663,0.32859 0.36511,-0.84809 -0.799628,-0.96349 -2.298488,-1.27226 -4.467414,-0.92029 -2.196261,0.35641 -3.772732,0.021 -4.819026,-1.0253 -0.85524,-0.85524 -1.841403,-1.26856 -2.191474,-0.91849 -0.350071,0.35007 -0.424236,-1.02136 -0.16481,-3.04762 0.315289,-2.46259 0.0724,-3.68919 -0.732555,-3.69942 -0.745046,-0.009 -0.632268,-0.39079 0.295762,-1 1.333333,-0.87528 1.333333,-1.0941 0,-1.96938 -0.825,-0.54158 -0.999381,-0.99158 -0.387513,-1 0.611867,-0.008 0.990498,-1.1266 0.8414,-2.48484 -0.149097,-1.35825 0.195162,-2.37075 0.765021,-2.25 0.56986,0.12074 1.230132,-1.10017 1.467272,-2.71313 0.451173,-3.06875 2.763164,-5.47884 5.31382,-5.53927 0.825,-0.0196 2.999664,-0.94985 4.832588,-2.06733 1.847661,-1.12647 5.719941,-2.21359 8.690473,-2.4398 2.946837,-0.22441 6.687435,-1.09555 8.31244,-1.93587 1.625004,-0.84033 4.914291,-1.83268 7.309526,-2.20523 2.625205,-0.40832 5.659674,-1.80986 7.639769,-3.5286 C 86.591434,176.28306 88.581001,175 89.206056,175 c 1.794348,0 4.707311,-3.06219 4.19154,-4.40626 -0.257139,-0.6701 0.571605,-1.77448 1.841653,-2.45419 1.270048,-0.67971 3.198282,-2.56288 4.284965,-4.18482 1.086686,-1.62194 2.803656,-2.95027 3.815496,-2.95185 1.01184,-0.002 2.62763,-0.97593 3.59065,-2.16521 1.35544,-1.67389 1.93479,-1.86488 2.56481,-0.84549 0.54004,0.87381 0.42543,1.07678 -0.34066,0.60331 C 108.51953,158.20305 108,158.39602 108,159.02432 c 0,2.29438 2.30551,0.2835 4.60585,-4.01724 1.29752,-2.42588 1.94077,-4.66925 1.42943,-4.98528 -0.57267,-0.35393 -0.57183,-1.1405 0.002,-2.04819 0.81676,-1.29154 0.93569,-1.28828 0.96253,0.0264 0.0265,1.29908 0.15368,1.30548 0.94933,0.0478 0.50529,-0.79874 0.68466,-1.83096 0.3986,-2.29381 -0.28606,-0.46285 0.001,-1.47001 0.63894,-2.23812 0.63748,-0.76811 1.0744,-2.2109 0.97094,-3.20619 C 117.54255,136.31496 118.04831,135 120,135 c 1.1,0 2,0.45 2,1 0,0.55 -0.51974,1 -1.15499,1 -0.64688,0 -0.3416,0.89878 0.69394,2.04303 1.25376,1.38539 1.38412,1.86524 0.40498,1.4907 -1.08601,-0.41543 -1.51155,0.4369 -1.71672,3.43844 -0.15004,2.19493 -1.11633,5.46161 -2.14732,7.2593 -1.03099,1.79769 -2.16624,4.2501 -2.52278,5.4498 l -0.64826,2.18127 4.29558,-2.08758 c 5.27369,-2.56293 16.99642,-3.52384 22.16791,-1.81709 4.39264,1.4497 4.01801,2.8998 -0.575,2.22569 -3.09933,-0.45488 -3.20658,-0.37248 -1.84404,1.41673 3.26264,4.28434 6.49479,7.39971 7.67709,7.39971 0.69091,0 1.95672,1.00013 2.81291,2.22251 1.32804,1.89605 1.5567,1.96082 1.5567,0.44098 0,-1.15907 0.43674,-1.51914 1.25,-1.03055 0.8271,0.4969 0.77889,0.17037 -0.1425,-0.96515 -0.76588,-0.94387 -1.10607,-2.00256 -0.75598,-2.35265 0.87051,-0.8705 7.65087,2.87197 7.0283,3.87932 -0.27382,0.44305 0.4287,0.80554 1.56116,0.80554 1.13246,0 2.05902,0.45 2.05902,1 0,0.55 -1.2375,1.01431 -2.75,1.0318 -2.60563,0.0301 -2.6504,0.1072 -0.85268,1.46797 1.04353,0.78989 2.30938,1.1815 2.81302,0.87024 0.50363,-0.31126 1.79009,0.22539 2.8588,1.19256 1.06872,0.96718 2.23646,1.46516 2.59498,1.10664 0.35852,-0.35852 1.36827,-0.0933 2.24387,0.58947 1.40053,1.09202 1.4308,1.0355 0.2517,-0.46995 -0.73716,-0.9412 -2.25912,-2.0029 -3.38212,-2.35933 -1.61485,-0.51253 -1.7528,-0.8311 -0.6597,-1.52341 2.35519,-1.49165 6.70608,-1.0531 7.05881,0.71149 0.2297,1.14912 1.62637,1.69755 4.82332,1.89397 2.475,0.15207 3.6886,0.0616 2.6969,-0.20103 -1.4312,-0.37903 -1.56064,-0.76968 -0.62756,-1.89397 0.94952,-1.1441 0.7788,-1.41645 -0.88788,-1.41645 -1.13488,0 -2.34154,-0.45 -2.68146,-1 -0.3431,-0.55515 0.40913,-1.00681 1.69098,-1.01531 1.59949,-0.0106 1.90952,-0.26872 1.00893,-0.83998 -0.71506,-0.45357 -1.37332,-1.79667 -1.46281,-2.98469 C 176.64761,163.97201 176.22015,163 175.7872,163 175.35424,163 175,162.55 175,162 c 0,-2.0609 3.18127,-0.8854 6.45,2.38333 2.13205,2.13205 3.0327,3.73397 2.43525,4.33142 -0.59745,0.59745 0.18026,0.78248 2.10282,0.50031 2.92522,-0.42933 3.01007,-0.34038 2.05976,2.15913 -0.54513,1.4338 -0.6664,2.55788 -0.26949,2.49794 0.39691,-0.0599 1.73416,-0.0557 2.97166,0.009 2.46787,0.12989 3.17189,2.11842 0.75,2.11842 -0.825,0 -1.5,0.45 -1.5,1 0,0.55 0.72748,1 1.61663,1 1.1058,0 1.45685,0.61099 1.11099,1.93359 -0.32846,1.25603 0.4191,2.78273 2.13337,4.35684 1.45145,1.33279 4.33412,4.49498 6.40592,7.0271 2.19328,2.68058 5.63972,5.43227 8.25,6.58692 2.48376,1.09869 4.48309,2.66313 4.48309,3.50793 0,0.94967 -0.57009,1.30609 -1.51134,0.94489 -1.13229,-0.4345 -1.34416,-0.11312 -0.84477,1.28139 0.36662,1.02374 1.08546,2.40413 1.59743,3.06754 0.51197,0.6634 0.65978,1.64481 0.32846,2.1809 -0.33132,0.53609 -0.14506,1.25736 0.41391,1.60282 0.55897,0.34546 1.01631,1.40341 1.01631,2.35099 0,1.12144 0.88339,1.79599 2.53054,1.93231 2.24274,0.18561 2.40844,-0.0187 1.45688,-1.79673 -0.84456,-1.57808 -0.74167,-2.13356 0.48219,-2.6032 0.85572,-0.32837 2.23068,-0.037 3.05546,0.64751 1.19815,0.99438 1.25343,1.54116 0.27501,2.72009 -0.98621,1.18831 -0.89128,1.71925 0.48767,2.72757 2.53308,1.85223 2.09947,2.44287 -1.53775,2.09461 -1.7875,-0.17115 -2.44537,-0.10932 -1.46192,0.13741 0.98344,0.24673 2.32919,1.31506 2.99054,2.37406 0.66136,1.059 1.57079,1.92546 2.02094,1.92546 0.45016,0 0.54354,-0.44485 0.20752,-0.98855 -0.35708,-0.57775 0.0688,-0.7277 1.02483,-0.36083 0.97428,0.37387 1.21883,0.8854 0.60472,1.26494 -0.65589,0.40536 -0.69197,1.17342 -0.0992,2.11083 0.51255,0.81049 0.9388,1.12028 0.94722,0.68843 0.008,-0.43185 0.84256,-0.34246 1.85364,0.19866 2.46263,1.31796 6.17842,0.29374 5.48548,-1.51202 -0.63619,-1.6579 1.53728,-1.83043 3.67619,-0.29181 1.23481,0.88825 1.16561,0.96989 -0.39144,0.46179 -1.63193,-0.53254 -1.71084,-0.3996 -0.57512,0.96886 1.1964,1.44156 1.40426,1.42896 2.28132,-0.13825 1.10326,-1.9709 -1.39662,-4.4016 -4.52729,-4.4016 -1.00667,0 -3.56845,-1.15024 -5.69284,-2.5561 -3.27759,-2.16901 -4.11595,-3.49408 -5.53602,-8.75 -0.92042,-3.40664 -1.94627,-6.8689 -2.27966,-7.6939 -0.90515,-2.23983 -0.86931,-2.05793 -1.67469,-8.5 -1.04588,-8.36573 -1.41467,-10.96059 -1.59891,-11.25 -0.0875,-0.1375 -0.18275,-2.1625 -0.21158,-4.5 -0.071,-5.75282 -0.69738,-6.4457 -2.85451,-3.15735 -1.00394,1.53042 -1.55644,3.21769 -1.22777,3.74948 0.34074,0.55134 0.0721,0.64212 -0.62512,0.21123 -0.67247,-0.41561 -0.98599,-1.37246 -0.6967,-2.12633 0.28929,-0.75387 0.0341,-2.78168 -0.56709,-4.50624 -0.86578,-2.4836 -0.80503,-3.31798 0.2922,-4.01286 0.76189,-0.48252 1.16026,-0.91763 0.88526,-0.96693 -4.56194,-0.8177 -5.70475,-1.21718 -6.8992,-2.41163 -1.21101,-1.21101 -0.79144,-1.40163 2.99547,-1.36098 2.42205,0.026 4.92617,0.4706 5.5647,0.988 0.73806,0.59805 1.40262,0.54974 1.82433,-0.13261 0.36485,-0.59033 0.22491,-0.94968 -0.31097,-0.79856 -0.53588,0.15113 -1.09969,-0.17522 -1.2529,-0.72522 -0.15322,-0.55 -0.87322,-1.59464 -1.6,-2.32143 -1.6764,-1.6764 -1.72873,-3.5413 -0.0714,-2.54563 0.95058,0.57109 0.98517,0.40557 0.14443,-0.69098 -0.60806,-0.79308 -1.3669,-2.50598 -1.68632,-3.80645 l -0.58075,-2.36449 2.46507,2.31581 c 1.35579,1.2737 2.40032,3.01272 2.32117,3.86449 -0.29142,3.13618 0.10881,5.15287 0.92279,4.6498 C 219.02105,160.86895 219.14139,154 217.96955,154 217.4363,154 217,153.52344 217,152.94098 c 0,-0.58246 0.434,-0.79078 0.96445,-0.46295 0.53045,0.32784 0.29941,-0.99561 -0.51342,-2.94098 C 216.53792,147.35166 216.37275,146 217.0188,146 c 0.57511,0 1.45262,1.0125 1.95004,2.25 l 0.90439,2.25 0.0634,-2.28138 c 0.0349,-1.25477 -0.60659,-2.53848 -1.42545,-2.85271 -1.06689,-0.40941 -1.38672,-1.70499 -1.12852,-4.57152 0.49065,-5.44713 -0.82242,-10.67862 -3.30286,-13.15905 l -2.06275,-2.06275 0.90596,3.15888 c 0.63575,2.21675 0.55865,3.30081 -0.25852,3.63476 -0.82879,0.3387 -0.80413,0.49863 0.0855,0.55482 0.6875,0.0434 1.25,0.63685 1.25,1.31873 0,0.68188 -1.125,0.0265 -2.5,-1.45635 -1.375,-1.48288 -2.5,-3.11068 -2.5,-3.61734 0,-0.50666 -0.63124,-1.44508 -1.40275,-2.08538 -1.07272,-0.89028 -1.49916,-0.87497 -1.8125,0.065 -0.27544,0.8263 -1.12681,0.51218 -2.59725,-0.95826 -2.16931,-2.16931 -5.87439,-3.10793 -4.6875,-1.1875 1.39405,2.25563 -0.66606,0.63804 -7.64144,-6 -4.04565,-3.85 -6.79971,-7 -6.12014,-7 0.84025,0 0.53723,-1.43743 -0.94704,-4.4925 -1.46324,-3.01179 -2.44269,-4.08297 -2.97169,-3.25 -0.58694,0.92423 -0.78906,0.85827 -0.78906,-0.2575 0,-0.825 0.41727,-2.15975 0.92727,-2.96612 0.74235,-1.173741 1.13814,-0.91149 1.98468,1.3151 0.58158,1.52967 1.05742,3.04695 1.05742,3.37173 0,0.32478 1.23415,2.20798 2.74256,4.1849 1.50841,1.97691 2.63501,4.06399 2.50357,4.63794 -0.13144,0.57395 1.67191,1.55597 4.00744,2.18227 2.33554,0.62629 5.14643,1.46625 6.24643,1.86658 1.75785,0.63973 1.69731,0.39038 -0.5,-2.0595 l -2.5,-2.78736 3.34293,1.70096 c 1.83861,0.93554 3.56972,1.47418 3.84691,1.197 0.27718,-0.27719 -1.38668,-1.46851 -3.69747,-2.64739 -2.3108,-1.17888 -3.90285,-1.66028 -3.53789,-1.06977 C 196.81943,113.51686 196.61492,114 196,114 c -0.61492,0 -0.81217,0.4949 -0.43834,1.09977 1.01139,1.63646 -3.81579,-1.11025 -5.29536,-3.01311 -0.67854,-0.87266 -2.70354,-4.60588 -4.5,-8.29603 -1.79647,-3.69016 -3.57348,-6.72766 -3.94891,-6.750004 -0.37544,-0.02234 -0.96113,0.836883 -1.30153,1.909395 -0.85188,2.684039 -10.11729,10.278949 -12.04946,9.877009 -2.58427,-0.5376 -1.79907,-2.24325 1.41622,-3.07642 C 173.72403,104.7552 182,96.666447 182,93.907348 c 0,-0.647386 -0.93266,0.0086 -2.07258,1.457793 C 178.7875,96.814314 177.4326,98 176.91652,98 c -0.51607,0 -2.97572,0.957693 -5.46588,2.12821 -2.49016,1.17051 -4.80226,1.85351 -5.138,1.51777 -0.33574,-0.33574 1.23811,-1.43806 3.49745,-2.449592 l 4.10788,-1.839153 -2.70898,-1.110827 -2.70899,-1.110828 2.76299,0.543877 c 3.81897,0.751743 5.4727,-0.9823 5.3451,-5.604702 -0.098,-3.551757 -1.35155,-5.315336 -13.48008,-18.96522 -11.74155,-13.214359 -13.60775,-14.923153 -15.3055,-14.014546 -1.06342,0.569128 -4.94603,1.105496 -8.628,1.19193 -4.93815,0.115922 -7.01468,0.591278 -7.91488,1.811858 -0.6712,0.910087 -3.39354,3.049221 -6.04963,4.75363 -4.68261,3.004825 -5.17293,3.097992 -16.14714,3.068145 C 101.24474,67.899234 96.571284,67.412147 93.882491,66.336305 91.747121,65.4819 90,64.489948 90,64.131967 c 0,-0.35798 -0.935752,-1.23526 -2.079449,-1.949511 -1.822344,-1.138073 -2.533277,-0.954507 -5.75,1.484676 -2.018803,1.530822 -4.703506,3.806963 -5.966006,5.05809 C 74.942045,69.97635 73.762255,71 73.582789,71 73.403323,71 70.859802,69.942276 67.93052,68.649503 l -5.325967,-2.350498 4.447724,-3.238945 c 7.48257,-5.448999 9.475701,-6.124852 18.722943,-6.348782 8.279073,-0.200485 8.954663,-0.0533 13.22478,2.881112 7.85093,5.395145 9.6302,5.251999 17.83079,-1.434523 l 4.3308,-3.531201 -2.97135,-1.563333 C 96.425023,41.61187 95.169915,41.212167 89.611674,43.962165 c -3.829359,1.894616 -3.980603,1.895856 -7.509869,0.06158 L 78.5,42.151761 82,40.709972 c 6.311612,-2.600002 23.3501,-0.286721 42.61209,5.785356 3.39439,1.070033 3.79474,-2.095392 0.76706,-6.064879 -1.76647,-2.315959 -2.45817,-4.236761 -2.13482,-5.928235 C 123.50741,33.125996 123.4048,32 123.01632,32 c -1.12407,0 -3.83258,3.329086 -4.76982,5.862685 -0.83328,2.252582 -0.93926,2.199976 -3.56684,-1.770563 C 113.19024,33.841455 111.52801,32 110.98581,32 c -2.06632,0 -0.85572,-1.697684 2.18885,-3.069533 6.33516,-2.854555 6.4338,-8.316153 0.20386,-11.287007 l -3.68381,-1.756687 4.39205,-4.475173 c 2.60081,-2.650035 4.52815,-3.9524143 4.72577,-3.1933868 0.83836,3.2200998 2.81863,6.0574628 5.14855,7.3769238 l 2.53892,1.437824 -2.46564,-0.26648 c -1.47232,-0.159126 -3.33321,-1.557147 -4.61916,-3.470207 l -2.15352,-3.203727 -2.26207,2.407865 -2.26207,2.407864 3.13123,2.634756 c 4.12287,3.469167 4.34373,8.358051 0.51369,11.370763 -1.43964,1.132425 -3.01464,1.813529 -3.5,1.513563 -1.65207,-1.02104 -0.8889,0.77628 1.57094,3.699625 2.42173,2.878068 2.46794,2.888517 3.58049,0.809698 1.65667,-3.095529 7.03503,-5.0641 10.848,-3.970556 1.71496,0.491845 3.15155,0.813176 3.19242,0.714069 0.0409,-0.09911 0.26305,-1.192694 0.49373,-2.430194 0.46661,-2.503185 -0.73483,-2.958886 -2.42661,-0.920407 -1.49023,1.795611 -6.58345,0.944453 -8.76354,-1.464527 -1.36476,-1.508039 -1.53525,-2.515425 -0.7862,-4.645348 C 121.43801,19.813217 122.05844,19.5 125.979,19.5 c 3.89458,0 4.5057,0.302568 5.04948,2.5 l 0.61866,2.5 0.74415,-2.251061 c 0.76958,-2.327973 4.35292,-4.896677 6.10871,-4.379006 0.55,0.16216 -0.0933,-0.869759 -1.42958,-2.293155 l -2.42958,-2.587991 -2.13487,2.005607 c -1.17418,1.103083 -3.00587,2.003924 -4.07042,2.001868 -1.47409,-0.0028 -1.1607,-0.476172 1.31445,-1.985302 C 131.5375,13.9211 133,12.347783 133,11.514698 133,10.681614 133.29412,10 133.65361,10 134.2913,10 142,18.004252 142,18.66639 142,18.849875 140.94474,19 139.65499,19 c -2.43752,0 -6.39878,3.426673 -4.97013,4.299392 0.44833,0.273871 2.72764,1.01089 5.06514,1.637822 2.3375,0.626931 4.25,1.546347 4.25,2.043148 0,0.50483 2.9927,0.652376 6.78447,0.334488 l 6.78447,-0.568785 2.55964,3.376967 c 4.68315,6.178539 5.21471,7.787801 3.95796,11.982461 -1.13612,3.792024 -6.22685,10.055205 -9.08654,11.179261 -1.33333,0.524092 -1.33333,0.735716 0,1.904616 1.67997,1.472789 15.1688,16.602518 19.12124,21.447311 l 2.55894,3.136681 1.22476,-3.387031 c 0.67362,-1.862867 2.32341,-4.692696 3.6662,-6.288509 1.36916,-1.627154 2.18438,-3.571347 1.85616,-4.426687 -0.44849,-1.168735 -0.0728,-1.391183 1.60756,-0.951767 2.25202,0.588916 2.27127,-0.02108 0.17628,-5.585702 -0.39133,-1.039435 -0.0594,-1.142606 1.38723,-0.431222 1.46639,0.721086 2.47383,0.368288 4.40163,-1.541424 1.375,-1.362094 1.9375,-2.153987 1.25,-1.759761 -0.6875,0.394226 -1.25,0.240217 -1.25,-0.342242 0,-0.582459 1.2375,-1.112259 2.75,-1.177332 L 196.5,53.76337 193.5,53 c -1.65,-0.419854 -2.25213,-0.816612 -1.33806,-0.881685 1.1933,-0.08495 1.57791,-0.883922 1.36391,-2.833364 -0.35754,-3.257075 0.36108,-5.472869 1.53885,-4.744962 0.47033,0.290676 0.37114,-0.85988 -0.2204,-2.55679 -0.59155,-1.696911 -0.81434,-3.346489 -0.4951,-3.665728 0.31924,-0.31924 0.1343,-1.414039 -0.41097,-2.432885 -0.87131,-1.62806 -0.49702,-1.931503 3.08995,-2.505083 8.17683,-1.307527 13.24036,-7.201417 9.63239,-11.211968 C 205.3213,20.67884 205.35669,20.258692 206.9905,18.25 208.9155,15.883304 212,15.199695 212,17.139757 c 0,0.626867 0.7249,1.66982 1.6109,2.317675 1.48119,1.083077 1.48119,1.307617 0,2.788814 -0.886,0.885993 -1.6109,2.503038 -1.6109,3.593432 0,2.673139 5.51517,7.156666 8.82673,7.175635 4.00867,0.02296 4.75011,1.0071 4.88546,6.484687 0.0679,2.75 0.29838,6.35 0.51206,8 0.21369,1.65 -0.0295,3.5625 -0.54031,4.25 -0.60398,0.812819 -0.52876,1.25 0.21505,1.25 0.62914,0 1.67116,1.157226 2.31559,2.571613 0.94778,2.080146 0.89591,2.758295 -0.27144,3.548426 -1.01879,0.689584 -0.13422,0.889061 3.00829,0.678386 4.34064,-0.290998 4.46896,-0.213585 5.15618,3.110418 0.39874,1.928653 0.23712,4.435215 -0.37221,5.772556 -0.94678,2.077954 -0.65204,2.753891 2.43805,5.591157 4.30156,3.949611 6.30865,9.329225 4.88131,13.083402 -0.65952,1.734683 -0.66984,3.526251 -0.03,5.209142 1.42117,3.737949 1.21634,8.05973 -0.74462,15.71124 -1.93056,7.53286 -1.46174,9.30753 3.04301,11.51907 2.02172,0.99254 3.13894,1.02766 4.77843,0.15023 1.62561,-0.87 1.96605,-0.86407 1.41678,0.0247 -0.39765,0.64341 -1.68946,1.59793 -2.87068,2.12115 -1.92913,0.8545 -1.86784,0.91235 0.60233,0.56859 1.5125,-0.21049 2.75,0.005 2.75,0.47862 0,0.70211 -2.3046,1.19782 -5,1.07548 -0.275,-0.0125 -1.08024,0.60923 -1.78943,1.38158 -1.3261,1.44422 -0.61451,1.87629 2.46413,1.49621 1.52763,-0.1886 4.3253,3.8265 4.3253,6.20749 0,1.55176 -0.48909,1.36532 -2.99676,-1.14234 -2.96227,-2.96228 -8.04951,-4.86456 -9.91912,-3.70908 -1.39435,0.86176 0.56977,5.90028 3.22099,8.26273 1.20719,1.07571 4.33753,2.74503 6.9563,3.70961 2.63376,0.9701 5.25537,2.7203 5.86682,3.91672 1.03468,2.02455 0.99524,2.05796 -0.61646,0.52218 -1.22559,-1.16788 -2.82421,-1.4929 -5.5467,-1.12774 -2.10367,0.28216 -5.27937,0.006 -7.05712,-0.61375 -3.92215,-1.36727 -4.58803,-0.94069 -2.22313,1.4242 1.70674,1.70675 1.66752,1.75855 -0.95238,1.25772 -3.45169,-0.65983 -3.48102,0.46633 -0.0818,3.14016 2.28378,1.79641 3.50189,1.99778 8.80097,1.45487 5.38959,-0.55218 6.7934,-0.30425 11.34936,2.00443 2.85947,1.449 5.19903,3.01362 5.19903,3.47692 0,0.4633 1.6875,2.82561 3.75,5.24958 2.0625,2.42398 4.31899,5.29983 5.01442,6.39079 0.69543,1.09096 2.14099,3.31226 3.21235,4.93623 2.18135,3.30647 1.92512,8.39504 -0.62254,12.3634 -1.39852,2.17839 -1.26006,2.58546 2.32944,6.84872 5.77188,6.85528 5.92017,7.13138 4.56052,8.49103 -0.66597,0.66597 -1.35932,1.01586 -1.54078,0.77752 -0.73754,-0.96871 -20.98016,-23.84288 -25.95319,-29.32711 -4.85165,-5.35037 -5.54666,-5.78553 -7.53813,-4.71973 -1.20655,0.64573 -4.0325,3.66311 -6.2799,6.7053 -4.66972,6.32117 -9.08219,9.39908 -13.48219,9.40447 -4.58649,0.006 -5.22004,1.22644 -4.29906,8.28408 1.5331,11.74846 4.74067,20.67297 9.16516,25.50045 1.73791,1.89622 2.77274,2.18459 6.13714,1.71024 4.82502,-0.68028 10.54676,2.27347 10.54676,5.44458 0,1.08076 0.5625,2.32487 1.25,2.7647 2.2627,1.44757 5.09627,5.29969 3.89837,5.29969 -0.63888,0 -2.13977,-1.125 -3.33532,-2.5 -2.05408,-2.36241 -4.58194,-3.5531 -3.36584,-1.58541 0.31089,0.50302 -5e-5,1.11642 -0.69098,1.3631 -0.73069,0.26087 -0.8852,0.81953 -0.36933,1.33541 0.51588,0.51587 1.07367,0.36397 1.33334,-0.3631 0.60104,-1.68292 2.27976,-1.59397 2.27976,0.12079 0,1.56344 -9.42316,2.88239 -22.5,3.14929 -32.56759,0.66472 -62.37395,1.87218 -64.3151,2.60543 -3.48826,1.31763 -5.7892,1.06041 -7.31246,-0.81747 z M 158,226.53138 c 0,-0.89208 -0.5866,-1.24351 -1.49426,-0.89521 -0.82184,0.31537 -1.24528,0.97625 -0.94098,1.46861 0.87262,1.41193 2.43524,1.04399 2.43524,-0.5734 z m 32.21481,-1.52118 c -0.24135,-1.64438 -0.77806,-2.78012 -1.1927,-2.52386 -0.91132,0.56322 -0.0842,5.51366 0.92127,5.51366 0.39063,0 0.51277,-1.34541 0.27143,-2.9898 z M 102,225.05902 c 0,-0.51754 -0.45,-1.2191 -1,-1.55902 -0.55,-0.33992 -1,0.0835 -1,0.94098 0,0.85746 0.45,1.55902 1,1.55902 0.55,0 1,-0.42344 1,-0.94098 z m 51,-3.44239 c 0,-1.81101 3.24088,-2.62096 5.47794,-1.36904 1.43604,0.80365 1.50857,1.14998 0.39204,1.87204 -0.94532,0.61134 -0.59504,0.76917 1.13002,0.50917 1.9475,-0.29352 2.43928,-0.89222 2.22524,-2.70908 -0.3643,-3.09231 -2.03533,-4.01292 -5.97524,-3.2919 -1.8719,0.34256 -3.25,0.17655 -3.25,-0.39153 0,-1.85202 6.01517,-2.27981 9.1636,-0.65169 1.66224,0.85958 3.23349,1.35164 3.49166,1.09347 0.25817,-0.25817 -1.01952,-1.21217 -2.83932,-2.12 C 159.40731,212.85762 152,213.22047 152,215.0879 c 0,0.50165 -0.675,0.9121 -1.5,0.9121 -0.825,0 -1.50689,-0.5625 -1.51531,-1.25 -0.0102,-0.83333 -0.33844,-0.75 -0.98469,0.25 -0.74799,1.15743 -0.97287,1.19009 -0.98469,0.14301 -0.009,-0.81329 -0.63712,-1.11838 -1.56725,-0.76145 -0.85356,0.32754 -1.29928,0.18672 -0.99047,-0.31294 0.30881,-0.49966 -0.59102,-1.81501 -1.99961,-2.92301 -1.40859,-1.108 -2.65038,-2.38153 -2.75953,-2.83008 -0.10915,-0.44854 -0.5694,-0.69188 -1.02278,-0.54075 -0.45338,0.15112 -0.55854,-0.15528 -0.23369,-0.68091 0.32486,-0.52562 0.1333,-1.23833 -0.42567,-1.58379 -1.32629,-0.81969 -1.31281,-9.08754 0.0189,-11.57582 0.72942,-1.36293 0.71295,-1.93426 -0.0558,-1.93426 -0.60002,0 0.17165,-1.18115 1.71482,-2.62478 1.54317,-1.44362 2.10951,-2.23112 1.25854,-1.75 -0.85097,0.48113 -0.43727,-0.10289 0.91935,-1.29782 3.24611,-2.85923 4.72672,-12.00256 2.07966,-12.8427 -0.92788,-0.2945 -1.6602,-1.31153 -1.62736,-2.26008 0.0956,-2.76276 -2.56288,-7.3471 -3.95162,-6.81419 -0.79025,0.30325 -1.06064,-0.0604 -0.71489,-0.96136 0.30583,-0.79699 0.0954,-1.44907 -0.4676,-1.44907 -0.56301,0 -1.22455,0.5625 -1.47008,1.25 -0.24554,0.6875 -0.81554,0.905 -1.26667,0.48333 -0.45113,-0.42166 -0.3034,-1.2835 0.3283,-1.9152 0.86471,-0.86471 0.73503,-1.45089 -0.52478,-2.37209 -1.801,-1.31693 -4.60427,-0.8168 -3.69233,0.65874 0.3043,0.49237 -0.14828,0.89522 -1.00574,0.89522 -0.85746,0 -1.55902,0.35424 -1.55902,0.7872 0,0.43295 -0.98244,0.8612 -2.18319,0.95165 -1.20075,0.0904 -2.57312,0.86121 -3.04969,1.7128 -0.47658,0.85159 -1.53364,1.54835 -2.34903,1.54835 -0.8154,0 -1.88951,1.0125 -2.38693,2.25 -0.53717,1.33641 -0.93012,1.62978 -0.96777,0.72251 -0.0349,-0.84013 0.69301,-2.64013 1.61749,-4 l 1.68088,-2.47251 -2.2249,1.94483 c -3.19987,2.79706 -2.3607,5.70186 2.30512,7.97924 2.62947,1.28345 4.06604,1.55187 4.3146,0.80618 0.20495,-0.61484 0.97304,-0.8875 1.70688,-0.6059 0.73383,0.2816 1.66101,-0.0167 2.06039,-0.66294 0.53965,-0.87318 0.95557,-0.82648 1.61945,0.18183 0.72152,1.09587 1.09913,1.00684 1.96373,-0.46301 1.03511,-1.7597 1.11598,-1.7597 2.4499,0 2.12648,2.80524 1.80794,4.57035 -0.68216,3.78002 -1.4056,-0.44612 -1.89865,-0.30791 -1.45609,0.40817 0.44943,0.72719 -0.64839,0.97098 -3.34346,0.74249 -2.20693,-0.18711 -4.17102,-0.18177 -4.36465,0.0119 -0.19364,0.19363 0.0263,3.52036 0.48883,7.39274 0.84642,7.087 0.38559,9.25664 -2.60031,12.24254 -1.21867,1.21867 -1.19831,1.85936 0.14739,4.63792 0.85876,1.77316 1.8415,2.7707 2.18385,2.21676 0.39851,-0.64481 1.15262,-0.66637 2.09606,-0.0599 1.2249,0.78734 1.24462,1.09489 0.11685,1.82221 -2.00712,1.29443 0.39386,2.44311 2.61827,1.25264 2.08925,-1.11813 6.96489,1.88801 5.88805,3.63036 -0.60804,0.98384 2.01898,2.73552 3.60044,2.40076 0.4125,-0.0873 0.6375,0.20759 0.5,0.65534 -0.1375,0.44776 1.28507,2.35494 3.16126,4.23819 C 148.17624,222.33705 153,224.51942 153,221.61663 z M 158,219 c -0.79314,-0.49019 -1.21708,-1.11625 -0.94208,-1.39125 0.275,-0.275 1.14894,-0.0989 1.94208,0.39125 0.79314,0.49019 1.21708,1.11625 0.94208,1.39125 -0.275,0.275 -1.14894,0.0989 -1.94208,-0.39125 z m -27.91976,-18.72324 c -0.68244,-1.49778 -0.8582,-2.85077 -0.39059,-3.00664 0.4676,-0.15587 0.70861,-3.02462 0.53556,-6.375 -0.23973,-4.64152 -0.006,-5.98986 0.98008,-5.66421 1.32229,0.43649 2.89161,10.59117 1.74618,11.29908 -0.33991,0.21008 -0.41696,1.75177 -0.17124,3.42598 0.55491,3.78086 -1.03728,3.97003 -2.69999,0.32079 z m 4.65097,0.8034 c -0.43497,-1.66335 -0.30483,-2.05378 0.43724,-1.31171 0.5811,0.5811 0.85979,1.64682 0.61931,2.36826 -0.24965,0.74895 -0.70294,0.29565 -1.05655,-1.05655 z m -10.28851,-0.4984 c -1.06675,-0.78003 -1.6413,-1.71649 -1.27677,-2.08102 0.84279,-0.84279 4.83407,1.24978 4.83407,2.53444 0,1.36334 -1.29921,1.19773 -3.5573,-0.45342 z m 10.12159,-3.87489 c 0.37553,-0.98622 0.93469,-1.54122 1.24258,-1.23333 0.30789,0.30789 6.4e-4,1.11479 -0.68278,1.79313 -0.98762,0.98026 -1.10248,0.8654 -0.5598,-0.5598 z m 7.68439,-17.19901 c 0.0308,-3.09807 0.40016,-5.07605 0.82075,-4.39553 0.76865,1.24371 0.44395,8.70763 -0.41623,9.5678 -0.25331,0.25331 -0.43535,-2.07421 -0.40452,-5.17227 z M 132,161 c 0,-0.55 0.45,-1 1,-1 0.55,0 1,0.45 1,1 0,0.55 -0.45,1 -1,1 -0.55,0 -1,-0.45 -1,-1 z m 56.45729,60.0691 c 0.31644,-0.512 0.11799,-1.21356 -0.44098,-1.55902 -0.55897,-0.34546 -1.01631,0.0734 -1.01631,0.9309 0,1.75653 0.60006,2.01516 1.45729,0.62812 z M 277.45585,193.5 c -2.58434,-3.025 -5.12007,-5.5 -5.63495,-5.5 -0.51489,0 1.2006,2.475 3.8122,5.5 2.61159,3.025 5.14732,5.5 5.63495,5.5 0.48763,0 -1.22786,-2.475 -3.8122,-5.5 z M 60,188 c 0,-0.55 -0.45,-1 -1,-1 -0.55,0 -1,0.45 -1,1 0,0.55 0.45,1 1,1 0.55,0 1,-0.45 1,-1 z m 3.526461,-0.80687 c -0.307887,-0.30789 -1.114794,-6.4e-4 -1.793128,0.68278 -0.980267,0.98762 -0.865403,1.10248 0.559795,0.5598 0.986221,-0.37553 1.541221,-0.93469 1.233333,-1.24258 z m 209.162219,-3.13979 c 0.0645,-0.85434 0.43841,-2.56584 0.83092,-3.80334 0.48694,-1.53521 0.30598,-2.25 -0.56964,-2.25 -0.70581,0 -1.00124,0.28205 -0.65651,0.62678 0.34473,0.34474 -0.0634,1.96155 -0.90707,3.59293 -0.84362,1.63138 -1.76213,2.73787 -2.04114,2.45887 -0.279,-0.27901 -0.005,-1.44583 0.60892,-2.59293 0.61392,-1.14711 0.70286,-2.08565 0.19766,-2.08565 -1.05736,0 -2.28808,3.97051 -1.58389,5.10991 0.83789,1.35573 3.99986,0.545 4.12075,-1.05657 z M 185,184 c 0,-0.55 -0.45,-1 -1,-1 -0.55,0 -1,0.45 -1,1 0,0.55 0.45,1 1,1 0.55,0 1,-0.45 1,-1 z M 81.729167,182.39583 c -0.332292,-0.33229 -1.194792,-0.36781 -1.916667,-0.0789 -0.797733,0.31922 -0.560776,0.55618 0.604167,0.60416 1.054166,0.0434 1.644791,-0.19293 1.3125,-0.52522 z m 6.839264,-3.11689 c -0.335575,-2.31227 -1.441465,-2.47514 -3.538809,-0.52116 l -2.102609,1.95887 2.909314,-0.10832 c 1.67353,-0.0623 2.83404,-0.627 2.732104,-1.32939 z M 262.5,177 c -1.56981,-1.63853 -3.0792,-2.75414 -3.3542,-2.47914 -0.275,0.275 0.78439,1.84061 2.3542,3.47914 1.56981,1.63853 3.0792,2.75414 3.3542,2.47914 0.275,-0.275 -0.78439,-1.84061 -2.3542,-3.47914 z m -31.30642,1.02134 c -0.23188,-1.02903 0.0196,-1.08932 1.03353,-0.24782 1.82743,1.51663 2.86203,0.64447 7.03924,-5.93402 1.97686,-3.11327 4.52565,-5.9561 5.66398,-6.31739 2.75759,-0.87522 2.61939,-1.62126 -0.93033,-5.02211 -2.64944,-2.53832 -3.0016,-2.64783 -3.01365,-0.93709 -0.008,1.0654 -0.26591,3.06209 -0.57422,4.43709 -0.54104,2.41289 -0.50572,2.43237 1.01365,0.55887 0.86582,-1.06762 1.57422,-1.46022 1.57422,-0.87244 0,0.58777 -0.72658,1.67169 -1.61462,2.40869 -1.37989,1.14521 -1.86561,1.03005 -3.34117,-0.7922 -1.71583,-2.11896 -1.72738,-2.11073 -1.85648,1.32359 -0.0931,2.47744 0.21578,3.24825 1.09117,2.72268 0.9341,-0.5608 0.92935,-0.37257 -0.0202,0.80086 -0.68273,0.84368 -1.02023,1.75506 -0.75,2.02529 0.27022,0.27023 -0.18368,0.49133 -1.00868,0.49133 -1.7113,0 -2.00665,-1.24874 -0.475,-2.00834 0.56375,-0.27958 0.45125,-0.38404 -0.25,-0.23212 -0.70125,0.15191 -1.23718,1.26265 -1.19095,2.46831 0.0551,1.43664 -0.3757,2.01567 -1.25,1.68017 -0.76421,-0.29325 -1.33405,0.1611 -1.33405,1.06368 0,0.87914 -0.57264,1.35586 -1.29547,1.07849 -0.7656,-0.29379 -1.35563,0.30144 -1.44254,1.45527 -0.10178,1.35111 0.37418,1.83793 1.54547,1.58074 0.9309,-0.20441 1.55465,-0.9836 1.38612,-1.73153 z M 270.27414,173.25 c 2.6513,-2.87561 1.54071,-2.87707 -2.56463,-0.003 -1.76523,1.23564 -3.40166,2.36529 -3.63651,2.51033 -0.23485,0.14504 0.44015,0.90387 1.5,1.68627 1.69797,1.25348 1.96858,1.22254 2.27683,-0.26033 0.19241,-0.92559 1.28335,-2.69539 2.42431,-3.93289 z M 91.984687,176.29545 C 92.001324,177.15969 97,172.43492 97,171.55496 c 0,-0.29477 -1.749134,0.69727 -3.886965,2.20454 -2.137831,1.50728 -3.656581,3.12604 -3.375,3.59726 0.281581,0.47122 0.898824,0.24622 1.371652,-0.5 0.472828,-0.74622 0.866578,-0.99881 0.875,-0.56131 z M 156,171 c 0,-1.33333 -0.66667,-2 -2,-2 -1.91304,0 -1.92391,0.0833 -0.25,1.91667 2.24042,2.45379 2.25,2.45414 2.25,0.0833 z m 100.1527,-0.75 c -1.09091,-1.5125 -5.9025,-6.8 -10.69241,-11.75 -10.2379,-10.58008 -8.48609,-7.9208 3.44711,5.23279 8.55557,9.43052 10.80779,11.45642 7.2453,6.51721 z M 99.5,169 c -0.563402,-0.9116 0.7885,-1.4423 2.80357,-1.10056 0.44197,0.075 1.34197,-0.44827 2,-1.16271 4.03783,-4.38394 4.76221,-5.57804 3.7597,-6.19763 -0.59254,-0.36621 -1.50418,0.49039 -2.05013,1.92635 -0.54072,1.42219 -1.77738,2.83174 -2.74813,3.13233 -2.95111,0.91379 -4.62606,1.98537 -5.038824,3.22366 -0.216069,0.64821 0.121205,1.17856 0.749498,1.17856 0.628292,0 0.864235,-0.45 0.524316,-1 z m 166.88499,-1.46482 C 268.46367,164.36271 268.42095,164 265.96862,164 c -1.11727,0 -2.29041,0.675 -2.60699,1.5 -1.04294,2.71784 -3.13358,1.57915 -3.54323,-1.92985 -0.22023,-1.88642 -0.0445,-3.20987 0.39059,-2.94099 C 260.64405,160.89804 261,160.64148 261,160.05902 261,159.47656 260.56412,159 260.03138,159 c -0.53273,0 -0.68126,-0.74882 -0.33006,-1.66404 0.42936,-1.11889 0.25527,-1.42717 -0.53138,-0.94099 -0.64347,0.39769 -1.16994,0.22354 -1.16994,-0.38698 0,-1.4028 -6.64597,-4.23304 -8.84814,-3.76804 -0.91464,0.19313 0.35263,0.99844 2.83954,1.80442 2.99656,0.97117 4.61585,2.11068 4.86534,3.4238 0.3284,1.72846 0.17205,1.80061 -1.28378,0.59238 -1.25562,-1.04207 -1.93852,-1.09499 -2.81534,-0.21817 C 251.88079,158.71921 252.01235,159 253.3,159 c 0.935,0 1.7,0.65264 1.7,1.45031 0,0.79767 0.68354,1.83284 1.51897,2.30037 0.83544,0.46753 1.70992,1.84158 1.94331,3.05345 0.64643,3.35666 1.44281,4.19587 3.98173,4.19587 1.3687,0 2.99064,-1.01441 3.94098,-2.46482 z M 238.05207,157.25 c -1.83403,-3.15188 -3.7538,-5.25 -4.80373,-5.25 -1.75462,0 -4.25614,-7.79497 -4.09815,-12.77024 L 229.30039,134.5 230,139 c 0.38479,2.475 0.7672,3.96679 0.84981,3.3151 0.0826,-0.6517 0.63625,-2.4517 1.23031,-4 l 1.08013,-2.8151 1.49813,2.83841 c 2.42536,4.59514 2.33747,2.66233 -0.22001,-4.83841 -1.3127,-3.85 -2.3449,-8.575 -2.29376,-10.5 0.0784,-2.95042 0.26421,-2.63638 1.18348,2 0.89953,4.53686 1.15054,4.97465 1.43338,2.5 0.18859,-1.65 1.4444,-7.11077 2.79071,-12.13504 2.49289,-9.30324 2.99257,-13.48688 1.75824,-14.72121 -0.7074,-0.707395 -4.21299,14.86642 -4.357,19.35625 -0.0736,2.29349 -0.14788,2.33311 -0.89965,0.4796 -0.50566,-1.24674 -0.15363,-4.69308 0.91933,-9 1.65613,-6.64779 1.67756,-9.63846 0.056,-7.81673 -1.12924,1.26864 -3.35467,14.17944 -3.41933,19.83713 -0.0314,2.75 0.3049,6.35 0.74741,8 0.53356,1.9895 0.48125,2.54084 -0.15528,1.63685 -0.81035,-1.15087 -1.05511,-1.15087 -1.57165,0 -0.3365,0.74973 -0.3981,0.46315 -0.13689,-0.63685 0.26121,-1.1 0.12883,-3.28772 -0.29417,-4.8616 -0.60374,-2.24637 -0.99268,-2.56886 -1.80907,-1.5 -1.98293,2.59615 -3.33672,9.41598 -2.65774,13.38857 l 0.67906,3.97303 0.67595,-3 c 0.62251,-2.7628 0.68531,-2.67043 0.79427,1.16821 0.0651,2.29252 0.38576,4.99252 0.71264,6 0.49429,1.52346 0.41271,1.5793 -0.48468,0.33179 -0.73373,-1.01998 -1.08392,-1.09999 -1.09434,-0.25 -0.008,0.6875 0.77219,1.92205 1.73469,2.74345 0.9625,0.82139 3.55,3.05921 5.75,4.97294 4.60271,4.00377 4.94353,4.17491 3.55207,1.78361 z M 227.19495,134.5 c 0.0204,-1.65 0.2445,-2.20394 0.49804,-1.23097 0.25354,0.97297 0.23687,2.32297 -0.0371,3 -0.27393,0.67703 -0.48137,-0.11903 -0.46099,-1.76903 z M 228,129.05902 c 0,-2.41457 0.55611,-2.65816 1.34934,-0.59105 0.30982,0.80739 0.13297,1.73395 -0.39301,2.05902 C 228.43035,130.85207 228,130.19148 228,129.05902 z m 15.38509,11.46314 c -1.7132,-1.35062 -3.69287,-3.851 -4.39927,-5.5564 -0.93212,-2.25034 -1.51349,-2.7394 -2.11978,-1.78325 -0.67436,1.0635 -0.83837,1.04438 -0.85073,-0.0992 -0.008,-0.77916 -0.26667,-1.1653 -0.57389,-0.85808 -1.40334,1.40333 2.6494,7.91181 5.77115,9.26814 4.89651,2.12744 5.66645,1.78324 2.17252,-0.97123 z m -5.76155,-4.06082 c -0.96498,-2.51469 -0.68031,-3.16355 0.49853,-1.13634 0.58369,1.00375 0.8506,2.03566 0.59313,2.29313 -0.25747,0.25747 -0.74872,-0.26309 -1.09166,-1.15679 z m 12.10563,5.93449 c -0.3323,-0.33229 -1.1948,-0.36781 -1.91667,-0.0789 -0.79773,0.31922 -0.56078,0.55618 0.60417,0.60416 1.05416,0.0434 1.64479,-0.19293 1.3125,-0.52522 z m -25.01244,-17.47109 c -0.28549,-2.12846 -1.20316,-4.55403 -2.03928,-5.39014 -1.23115,-1.23115 -1.31975,-2.23462 -0.46597,-5.27741 0.57983,-2.06645 1.12518,-4.65719 1.21189,-5.75719 0.0867,-1.1 0.65659,-1.90261 1.2664,-1.78358 0.60981,0.11903 4.4939,-3.09271 8.6313,-7.137196 6.59636,-6.448223 7.60718,-7.917947 8.20989,-11.937138 0.93643,-6.244558 -1.40339,-10.012723 -9.53307,-15.352558 -3.52566,-2.315759 -6.58876,-4.031989 -6.80691,-3.813844 -0.21814,0.218145 -1.53009,-0.03432 -2.91544,-0.561023 -1.72633,-0.65635 -2.95248,-0.597739 -3.89718,0.186288 -2.14011,1.776137 -1.63848,2.88617 1.37164,3.035233 2.35784,0.116762 2.42915,0.197981 0.5,0.569551 -1.2375,0.238353 -2.25,0.852071 -2.25,1.363818 0,0.511747 -0.7875,0.958973 -1.75,0.993835 -1.27004,0.046 -1.09315,0.326134 0.64493,1.021389 1.31721,0.526901 3.28606,0.675167 4.37523,0.32948 1.4008,-0.444596 1.76058,-0.273015 1.22947,0.586336 -0.49585,0.802307 -2.06652,1.00447 -4.62522,0.595316 -3.88179,-0.620723 -4.39615,-0.198422 -3.93202,3.228282 0.21413,1.580901 -1.88309,4.330497 -2.84811,3.734079 -0.37351,-0.230842 -0.74529,0.458839 -0.82617,1.532623 -0.0809,1.073784 0.27054,1.694237 0.78096,1.378784 0.51041,-0.315453 0.66003,0.124821 0.33249,0.978387 C 211.05401,88.301628 211.28417,89 211.89301,89 c 0.60885,0 1.0537,-0.3375 0.98857,-0.75 -0.32666,-2.068812 0.28501,-3.014556 1.86842,-2.888889 0.9625,0.07639 1.6375,-0.423611 1.5,-1.111111 -0.1375,-0.6875 0.23002,-1.25 0.81672,-1.25 0.5867,0 2.65124,-1.208566 4.58786,-2.685703 2.99182,-2.281969 3.43411,-3.120847 2.94221,-5.580357 -0.41232,-2.061604 -0.22177,-2.763607 0.66214,-2.439297 0.68259,0.250446 1.12648,0.967889 0.98642,1.594317 -0.23027,1.029902 3.43067,3.091026 8.00465,4.506653 0.9625,0.29789 1.75,1.032298 1.75,1.632019 0,0.599721 -0.45,0.812287 -1,0.472368 -1.21974,-0.753843 -1.21976,-0.753066 -0.0784,3.226511 0.51693,1.80243 0.55467,4.43397 0.086,5.993398 -0.78245,2.603196 -0.84195,2.525574 -0.93522,-1.219909 -0.15581,-6.257012 -1.09352,-8.45961 -4.30947,-10.122645 -1.64063,-0.848402 -2.67991,-1.052202 -2.30951,-0.452889 0.37039,0.599313 -0.009,1.351668 -0.84385,1.671901 -1.6642,0.638614 -5.61193,6.820111 -6.15436,9.636722 -0.18795,0.975936 -0.61879,2.222738 -0.95743,2.77067 -1.38469,2.240469 1.58193,0.80437 3.08865,-1.495173 0.89784,-1.370278 2.03322,-2.24372 2.52305,-1.940983 0.48984,0.302737 0.9068,-0.03863 0.92658,-0.758586 0.0198,-0.719959 1.06903,-2.571402 2.33166,-4.114318 2.886,-3.526631 4.33341,-2.186541 4.73428,4.383233 0.29065,4.763375 -0.97318,7.330665 -7.17838,14.581838 -1.98096,2.31488 -3.00072,2.86303 -3.81375,2.05 -0.81303,-0.81303 -1.10977,-0.43892 -1.10977,1.3991 0,1.37988 -0.66069,3.38238 -1.4682,4.45 -1.37248,1.81458 -1.47485,1.68036 -1.57028,-2.05887 -0.0808,-3.16485 -0.28153,-3.58243 -0.96152,-2 -0.5986,1.39301 -0.90209,1.54476 -1,0.5 -0.0961,-1.02528 -0.39161,-0.86704 -0.93379,0.5 -0.48036,1.21117 -0.35404,2.32584 0.32028,2.82613 0.72406,0.53719 0.58888,0.68445 -0.38649,0.42103 -0.825,-0.2228 -2.02294,-1.44513 -2.66208,-2.71627 l -1.16209,-2.31118 -0.46096,2.39014 -0.46097,2.39015 -0.76569,-2.33453 c -0.48294,-1.47248 -1.02681,-1.91203 -1.47284,-1.19034 -0.4625,0.74835 -1.2874,0.25864 -2.38432,-1.41546 -1.91795,-2.92717 -3.15667,-3.23826 -4.01261,-1.00773 -0.32754,0.85356 -0.21955,1.31956 0.23999,1.03556 0.45954,-0.28401 2.07353,0.77581 3.58664,2.35517 1.53338,1.6005 4.35265,3.172 6.36927,3.55032 3.58682,0.67289 9.73514,4.29086 8.83,5.196 -0.25895,0.25895 -1.52236,-0.20459 -2.80758,-1.03009 -3.54798,-2.27887 -6.06678,-2.43135 -6.38794,-0.38671 -0.18505,1.17813 0.78251,2.22131 2.88641,3.11198 5.33903,2.26026 9.50406,8.67857 7.59202,11.6993 -0.65148,1.02924 -0.90081,0.63732 -0.91194,-1.43347 -0.0154,-2.86806 -5.57822,-9.65 -7.91531,-9.65 -2.03395,0 -1.12505,1.64942 2.9,5.26279 3.61311,3.24355 4.00092,4.05738 4.00946,8.41404 l 0.009,4.82317 2.60844,-4.35266 c 2.02638,-3.38138 2.49261,-5.21622 2.08937,-8.2226 z m -4.8439,-4.57797 c -0.75463,-0.90927 -2.72223,-2.24166 -4.37244,-2.96086 -1.65022,-0.71919 -2.41554,-1.32524 -1.70073,-1.34677 2.098,-0.0632 6.9077,2.75586 7.54777,4.42387 0.76429,1.99171 0.24058,1.95043 -1.4746,-0.11624 z M 225,105.39911 c 0,-0.54627 1.83813,-2.77204 4.08473,-4.94616 5.79133,-5.604476 7.89137,-10.142609 7.63083,-16.489982 -0.20062,-4.887833 -0.47539,-5.415792 -3.96556,-7.619883 -4.3703,-2.759902 -5.01312,-4.047629 -0.97922,-1.961617 5.75262,2.974794 10.81952,10.517641 8.16661,12.15723 -0.43692,0.27003 -0.99029,-0.52821 -1.22971,-1.773867 -0.23943,-1.245657 -0.4966,-0.32091 -0.5715,2.054994 -0.0941,2.984974 -1.0337,5.611522 -3.04071,8.5 C 231.75407,100.12873 225,106.87198 225,105.39911 z M 223,86 c 1.1749,-1.65 2.36119,-3 2.63619,-3 0.275,0 -0.46129,1.35 -1.63619,3 -1.1749,1.65 -2.36119,3 -2.63619,3 -0.275,0 0.46129,-1.35 1.63619,-3 z m -6.36163,-6.5 c 0.31659,-0.825 0.75246,-1.5 0.96862,-1.5 0.21615,0 0.39301,0.675 0.39301,1.5 0,0.825 -0.43588,1.5 -0.96862,1.5 -0.53273,0 -0.70959,-0.675 -0.39301,-1.5 z m 13.02391,41.25 c -0.27741,-0.6875 -0.50439,-0.125 -0.50439,1.25 0,1.375 0.22698,1.9375 0.50439,1.25 0.27741,-0.6875 0.27741,-1.8125 0,-2.5 z m 1.87764,-9.25 c 0.39076,-3.3 0.38355,-5.69191 -0.016,-5.31537 -0.39958,0.37655 -1.04932,3.42245 -1.44387,6.76867 -0.39455,3.34622 -0.38734,5.73813 0.016,5.31537 0.40336,-0.42277 1.0531,-3.46867 1.44386,-6.76867 z m -23.93031,1.10809 c -1.4035,-3.35906 -2.37888,-4.05061 -5.23462,-3.71144 -0.61876,0.0735 -3.37578,-1.89001 -6.12671,-4.36333 -5.01927,-4.51276 -7.42007,-9.80156 -7.13871,-15.72614 0.0632,-1.331578 0.4509,-0.615761 0.91678,1.69282 1.05146,5.210274 2.88244,9.92454 3.58265,9.224335 0.30417,-0.304173 0.0666,-1.461999 -0.52798,-2.572947 -1.38443,-2.586827 -1.44727,-4.917634 -0.0961,-3.566522 0.54167,0.541677 1.14608,2.457514 1.34313,4.257416 0.19704,1.799902 1.15642,4.034208 2.13194,4.965138 1.68035,1.60351 1.71492,1.57763 0.65687,-0.49168 -1.74864,-3.419986 -1.3974,-4.879642 0.71434,-2.968546 2.08597,1.887776 3.73971,1.045576 2.01873,-1.028077 -0.89525,-1.078705 -0.78858,-1.232826 0.50868,-0.73502 2.96501,1.137783 1.82967,-2.699256 -1.85856,-6.281216 -1.925,-1.869536 -3.5,-4.113181 -3.5,-4.985877 0,-1.111817 0.62032,-0.798111 2.07258,1.048137 2.48157,3.154809 3.51741,3.310745 4.21717,0.634859 0.29929,-1.144486 0.0284,-2.00739 -0.63337,-2.017277 -0.63601,-0.0095 -2.21611,-1.134502 -3.51134,-2.5 C 195.84981,82.117226 195.3169,81 195.96078,81 c 1.87204,0 5.42733,2.159739 6.84592,4.158699 1.45634,2.05215 4.69871,2.450589 5.77468,0.709624 0.38468,-0.622423 -0.0388,-1.544783 -0.94098,-2.04969 -2.42224,-1.355551 -1.9961,-2.643059 0.99366,-3.002211 2.17818,-0.261659 2.67738,-0.880323 2.88437,-3.574644 0.13768,-1.792022 0.7911,-3.909809 1.45204,-4.706195 0.66094,-0.796385 0.89291,-1.947626 0.51548,-2.558313 -0.37742,-0.610687 -0.0291,-1.642899 0.77418,-2.293805 0.80322,-0.650906 1.75858,-2.034615 2.12303,-3.074909 0.5554,-1.585373 0.42198,-1.691726 -0.8245,-0.65724 -1.27102,1.054855 -1.43048,0.78667 -1.09736,-1.845561 0.21438,-1.69387 -0.0267,-3.33717 -0.53576,-3.651777 C 213.41649,58.139372 213,57.431966 213,56.881966 c 0,-0.55 0.51953,-0.678914 1.15451,-0.286474 0.75873,0.46892 0.88108,0.271113 0.35691,-0.577016 -0.60064,-0.971859 -1.22914,-0.718438 -2.54517,1.026263 -1.63375,2.165913 -1.85653,2.207837 -3.42067,0.643703 -0.9202,-0.920205 -1.4392,-2.051552 -1.15333,-2.514105 0.28588,-0.462552 -0.0229,-0.891835 -0.68624,-0.953963 -0.6633,-0.06213 -2.44763,-0.300699 -3.96516,-0.530158 -2.14836,-0.324844 -2.52501,-0.135071 -1.70144,0.857265 1.32301,1.59413 -0.0445,2.52928 -2.89577,1.980181 -1.179,-0.227055 -2.14364,0.01134 -2.14364,0.529756 0,0.51842 1.0125,0.994783 2.25,1.058583 1.71224,0.08828 1.82881,0.225868 0.48776,0.575682 -0.96924,0.252825 -1.53904,0.820835 -1.26623,1.262245 0.2728,0.44141 -0.89541,1.080848 -2.59603,1.420973 -2.4131,0.482618 -2.94629,0.99824 -2.42825,2.348227 0.48447,1.262524 -0.0255,1.082269 -1.88779,-0.667264 -2.61566,-2.457285 -4.69456,-2.391059 -2.35708,0.07509 2.42349,2.556888 2.00028,4.578516 -1.08775,5.196123 -3.73516,0.747031 -7.29905,5.717817 -7.72815,10.778919 l -0.33065,3.900008 3.07568,-3.503001 C 183.82313,77.57635 185.78572,76 186.49281,76 c 1.64524,0 6.40748,-3.92228 4.81621,-3.966731 C 190.65398,72.014971 189.83992,72.45 189.5,73 c -0.76632,1.239931 -3.5,1.324603 -3.5,0.108408 0,-1.304113 5.13052,-2.377889 6.20893,-1.299478 1.09656,1.096562 -0.70997,3.056511 -6.5339,7.088785 C 181.60443,81.716051 176.90653,88 178.87014,88 c 0.54077,0 1.22708,-0.7875 1.52515,-1.75 0.29807,-0.9625 0.35343,-0.02596 0.12302,2.081203 -0.3563,3.258492 -0.20212,3.651275 1.03138,2.627555 C 182.34736,90.296752 183,88.996219 183,88.068685 c 0,-0.927534 0.66705,-2.559934 1.48234,-3.627555 1.37989,-1.806971 1.44583,-1.699232 0.95413,1.55887 l -0.5282,3.5 1.47855,-3.896975 c 0.81321,-2.143337 2.22736,-4.618337 3.14256,-5.5 1.26383,-1.217519 1.15977,-0.644639 -0.43269,2.382166 -2.44684,4.650718 -2.73,11.389452 -0.64777,15.416025 0.7969,1.541043 3.06256,4.218694 5.03479,5.950344 1.97224,1.73164 2.9835,3.14844 2.24725,3.14844 -3.01017,0 -9.35989,-8.523309 -10.80225,-14.5 -0.70712,-2.930108 -0.72637,-2.911104 -0.82635,0.815741 -0.19003,7.083949 3.5646,11.611219 13.39764,16.154609 3.85,1.77891 7.85974,4.20358 8.91054,5.38815 2.58235,2.91111 3.01579,2.09763 1.19907,-2.25041 z M 204.40499,110.75 202.5,108.5 l 2.25,1.90499 c 1.2375,1.04774 2.25,2.06024 2.25,2.25 0,0.80025 -0.80479,0.20945 -2.59501,-1.90499 z M 198.5,94 c -0.33992,-0.55 -0.14148,-1 0.44098,-1 0.58246,0 1.05902,0.45 1.05902,1 0,0.55 -0.19844,1 -0.44098,1 -0.24254,0 -0.7191,-0.45 -1.05902,-1 z M 195,77 c 0,-1.1 0.17252,-2 0.38337,-2 0.21085,0 0.61872,0.9 0.90638,2 0.28766,1.1 0.11514,2 -0.38337,2 C 195.40787,79 195,78.1 195,77 z m -15,0.309975 c 0,-0.55 0.9,-1.814489 2,-2.809975 1.1,-0.995486 2,-1.359975 2,-0.809975 0,0.55 -0.9,1.814489 -2,2.809975 -1.1,0.995486 -2,1.359975 -2,0.809975 z m 18.25,-0.972256 C 197.5625,76.060307 197,75.405001 197,74.881483 c 0,-0.574886 0.76338,-0.543303 1.92756,0.07975 2.61611,1.400098 5.5073,0.330773 3.77888,-1.397643 -0.68318,-0.683187 -1.90912,-1.503954 -2.7243,-1.823925 -0.85472,-0.335492 -0.29302,-0.615187 1.32688,-0.660715 1.97771,-0.05558 2.59613,0.29098 2.08967,1.171053 -0.39564,0.6875 -0.3511,0.916404 0.099,0.508676 0.45007,-0.407728 1.42776,-0.235523 2.17265,0.382679 2.9539,2.451521 -2.95659,4.997517 -7.42032,3.196364 z m 4.94087,-6.045286 C 200.82085,68.9133 199.08975,67.57692 199.34397,67.322698 200.06014,66.606522 208,70.915479 208,72.020324 c 0,0.538822 -0.1125,0.934664 -0.25,0.879649 -0.1375,-0.05501 -2.18911,-1.228407 -4.55913,-2.60754 z m 5.96917,-1.319927 c -0.088,-1.390121 -0.86056,-3.527621 -1.71674,-4.75 C 206.58711,63.000128 206.30701,62 206.82085,62 c 1.90707,0 3.30323,2.969918 2.90742,6.184676 -0.30805,2.501963 -0.44746,2.695245 -0.56823,0.78783 z M 191,68.739782 C 191,67.204763 195.69189,62 197.07565,62 c 1.16028,0 -0.0475,2.338936 -2.96908,5.75 C 191.93224,70.288586 191,70.585606 191,68.739782 z M 203.5,56 c -0.33992,-0.55 0.0835,-1 0.94098,-1 0.85746,0 1.55902,0.45 1.55902,1 0,0.55 -0.42344,1 -0.94098,1 -0.51754,0 -1.2191,-0.45 -1.55902,-1 z M 188,113.55902 c 0,-0.24254 -0.45,-0.7191 -1,-1.05902 -0.55,-0.33992 -1,-0.14148 -1,0.44098 0,0.58246 0.45,1.05902 1,1.05902 0.55,0 1,-0.19844 1,-0.44098 z m 5.78639,-1.75421 c -0.80166,-1.20736 -2.09404,-2.39409 -2.87197,-2.63718 -0.77793,-0.24309 -0.32348,0.74475 1.00989,2.19519 2.94914,3.20808 3.83893,3.41928 1.86208,0.44199 z m 34.9066,-1.53578 c -0.25354,-0.97297 -0.47766,-0.41903 -0.49804,1.23097 -0.0204,1.65 0.18706,2.44606 0.46099,1.76903 0.27392,-0.67703 0.29059,-2.02703 0.0371,-3 z m -15.00988,-4.45653 c -0.31922,-0.79773 -0.55618,-0.56078 -0.60416,0.60417 -0.0434,1.05416 0.19292,1.64479 0.52522,1.3125 0.33229,-0.3323 0.36781,-1.1948 0.0789,-1.91667 z m 0.30909,-6.51281 c 0.0111,-1.714055 -2.93133,-3.128369 -5.24809,-2.522523 -1.6723,0.437318 -1.87132,0.151633 -1.31022,-1.880762 0.61499,-2.227534 0.57791,-2.255468 -0.52612,-0.396405 -0.65326,1.1 -1.81287,2.724937 -2.57692,3.610971 -1.22141,1.416408 -1.01351,1.792917 1.72142,3.117479 2.42311,1.17355 3.64343,1.25953 5.52137,0.38903 1.32591,-0.61461 2.41427,-1.657619 2.41856,-2.31779 z M 243,100 c 0,-1.65 -0.43188,-3 -0.95974,-3 -0.52786,0 -0.86536,1.349106 -0.75,2.998013 C 241.56333,103.90125 243,103.90292 243,100 z m -92.41915,-2.156343 c 2.34182,-4.52859 1.22835,-4.320174 -1.26805,0.23735 -1.18764,2.168203 -1.74067,3.683433 -1.22896,3.367183 0.51171,-0.31626 1.63536,-1.938298 2.49701,-3.604533 z m 64.69729,-0.965512 c -0.61702,-0.61702 -0.88387,-1.74202 -0.59301,-2.5 C 215.03099,93.476856 214.48722,93 213.1136,93 l -2.10037,0 2.17372,2.5 c 1.19555,1.375 2.40757,2.5 2.69339,2.5 0.28581,0 0.0148,-0.504835 -0.6022,-1.121855 z m -37.78522,-0.866691 c 0.35034,-0.56686 -0.0511,-0.734507 -0.94098,-0.393011 C 174.81952,96.283234 174.50255,97 175.94098,97 c 0.51754,0 1.21592,-0.444846 1.55194,-0.988546 z M 205,91.5 c 0,-1.925 -0.45,-3.5 -1,-3.5 -1.11241,0 -1.32857,2.980177 -0.39301,5.418213 C 204.55969,95.900916 205,95.294599 205,91.5 z m 12,0 c 0,-2.444444 -0.45238,-3.5 -1.5,-3.5 -0.825,0 -1.5,0.360286 -1.5,0.800635 0,0.883894 2.3519,6.179139 2.75,6.191563 C 216.8875,94.996489 217,93.425 217,91.5 z m -65.49529,-1.25 c -0.3901,-0.9625 -1.12631,-2.898686 -1.63602,-4.302634 -0.75779,-2.087296 -1.60506,-2.568145 -4.64771,-2.637718 -3.22052,-0.07364 -3.40594,0.03457 -1.37863,0.804574 1.2883,0.489311 2.7508,0.637227 3.25,0.328701 0.49921,-0.308527 0.9639,-0.0844 1.03265,0.49806 0.0687,0.582459 0.24178,1.396517 0.38452,1.809017 0.14274,0.4125 0.58897,1.7625 0.99163,3 0.40266,1.2375 1.17777,2.25 1.72247,2.25 0.54673,0 0.67264,-0.783908 0.28109,-1.75 z m -8.97825,-4.056872 c -0.30789,-0.307887 -1.11479,-6.34e-4 -1.79313,0.682784 -0.98026,0.987616 -0.8654,1.10248 0.5598,0.559795 0.98622,-0.375531 1.54122,-0.934692 1.23333,-1.242579 z M 137.5,84 c 1.31874,-0.566682 1.48906,-0.878155 0.5,-0.914402 -0.825,-0.03024 -2.175,0.381246 -3,0.914402 -1.82797,1.181322 -0.24909,1.181322 2.5,0 z m 35.2271,-6.73828 c -8.0405,-8.639143 -23.18026,-25.787822 -25.87234,-29.305371 -1.45489,-1.900992 -2.9456,-3.165636 -3.3127,-2.81032 -0.3671,0.355315 1.27326,2.852719 3.64524,5.549785 2.37199,2.697067 6.3377,7.355928 8.8127,10.353026 2.475,2.997097 6.79023,7.924694 9.58939,10.950214 2.79917,3.02552 6.38879,6.994578 7.97694,8.820128 1.58815,1.82555 3.04617,2.843324 3.24004,2.26172 0.19386,-0.581604 -1.64181,-3.200236 -4.07927,-5.819182 z m -35.80068,4.323246 c 1.67554,-0.928201 3.35706,-1.077257 5.43376,-0.481666 3.51193,1.007206 4.61755,0.490297 1.97547,-0.923584 -2.82763,-1.513168 -11.74923,-2.657923 -10.97704,-1.408492 0.35386,0.572559 1.65543,0.797042 2.89239,0.498852 1.71483,-0.413392 1.98456,-0.25729 1.13565,0.657231 -0.61234,0.659668 -3.31234,1.567959 -6,2.018425 l -4.88665,0.81903 4,0.08218 c 2.2,0.0452 5.09189,-0.52269 6.42642,-1.26198 z m -6.01463,-0.94139 c -1.83628,-1.545867 -6.79368,-2.277055 -8.66031,-1.277343 -1.82372,0.976735 -1.34206,1.167717 3.47758,1.378886 3.07698,0.134815 5.40921,0.08912 5.18273,-0.101543 z M 233.5,69 c -0.33992,-0.55 -0.029,-1.006891 0.69098,-1.015313 1.00515,-0.01176 0.98159,-0.222589 -0.1015,-0.908225 -0.86701,-0.54885 -2.10395,-0.45986 -3.21011,0.230948 -1.3141,0.820666 -1.47313,1.331336 -0.58948,1.892913 C 232.03761,70.311038 234.22587,70.174482 233.5,69 z M 77.597601,65.327836 c 2.569515,-2.72448 3.132848,-3.881855 2.182848,-4.484688 -1.971767,-1.251206 -4.571543,-0.999651 -8.080109,0.781834 -5.725101,2.906936 -6.128083,3.539689 -3.528141,5.539796 3.45338,2.656645 5.577907,2.24259 9.425402,-1.836942 z m 46.108869,-1.458324 c 4.56146,-2.815038 12.0238,-11.409763 15.04186,-17.324416 2.70355,-5.298298 5.40799,-15.974149 4.58796,-18.111113 -0.26455,-0.689418 -1.68594,-1.540469 -3.15865,-1.891223 -1.4727,-0.350755 -3.46514,-0.87169 -4.42764,-1.157635 -1.40204,-0.416526 -1.75,0.09628 -1.75,2.579033 0,4.538559 -3.6301,14.557213 -7.39973,20.422412 -3.55792,5.535783 -10.21286,12.090079 -15.36728,15.134872 C 109.45484,64.571817 108,65.842316 108,66.344774 c 0,1.564753 12.30144,-0.373892 15.70647,-2.475262 z m 105.39431,1.966687 c 3.3238,-1.13798 4.85314,-2.455869 4.88391,-4.208644 0.008,-0.479844 -0.5941,-0.366675 -1.33894,0.251487 -0.74485,0.618163 -3.21985,1.197033 -5.5,1.286379 C 223.84903,63.294599 223,63.703888 223,65.163934 c 0,2.133093 1.38745,2.28598 6.10078,0.672265 z M 102,64.014188 c 0,-0.542196 -1.83404,-2.199521 -4.075645,-3.682945 -3.187017,-2.109068 -5.089221,-2.644668 -8.724357,-2.456498 -2.556792,0.13235 -4.809297,0.40122 -5.005567,0.597491 -0.19627,0.19627 1.233992,1.111761 3.178361,2.034424 1.944369,0.922663 4.061014,2.311118 4.703657,3.085455 C 93.403916,65.191615 102,65.557228 102,64.014188 z m 45.20084,-8.121675 c 1.13815,-0.609118 1.6703,-1.396618 1.18256,-1.75 -0.48774,-0.353382 -2.32727,-2.321451 -4.08784,-4.373486 -2.12394,-2.475556 -3.44476,-3.336627 -3.92535,-2.559017 -0.39837,0.644576 -0.20132,1.346286 0.43789,1.559355 1.27559,0.425198 -1.16346,6.119511 -3.19763,7.465322 -1.80439,1.193786 7.32932,0.867905 9.59037,-0.342174 z M 124.64303,48.5 c -0.34459,-1.112991 -21.83706,-7.43039 -25.423758,-7.472942 -1.278583,-0.01517 3.115388,2.742089 9.999998,6.275098 12.23165,6.276968 12.28763,6.293954 14.00705,4.25 C 124.17579,50.42347 124.81331,49.05 124.64303,48.5 z M 199,52 c 0,-0.55 -0.45,-1 -1,-1 -0.55,0 -1,0.45 -1,1 0,0.55 0.45,1 1,1 0.55,0 1,-0.45 1,-1 z m -40.32333,-3.25 c 2.74636,-3.051048 3.57876,-5.737296 2.26747,-7.317307 -1.28949,-1.553744 -3.58919,-0.904237 -6.69414,1.890633 -2.69319,2.424232 -2.90334,5.196759 -0.5,6.596575 2.43209,1.416562 2.64375,1.366301 4.92667,-1.169901 z m 39.47655,-1.996781 C 197.11812,45.718117 195,46.532375 195,47.965397 c 0,0.46605 0.92974,0.604232 2.06609,0.30707 1.34778,-0.352452 1.72573,-0.880642 1.08713,-1.519248 z m 23.22041,1.451259 c 0.6221,-1.006586 -3.94765,-0.964623 -4.95732,0.04552 -0.4123,0.4125 0.4238,0.75 1.85801,0.75 1.4342,0 2.82889,-0.357985 3.09931,-0.795522 z M 208,46.8001 c -3.01528,-1.294312 -6.37892,-1.76057 -5.2855,-0.732661 0.86374,0.811984 3.94359,1.671027 6.2855,1.753173 0.825,0.02894 0.375,-0.430292 -1,-1.020512 z M 152.41111,42.923275 C 153.835,41.231076 155,39.373562 155,38.795466 c 0,-1.231548 -7.18462,-0.30221 -10.21924,1.32187 -1.93276,1.03438 -1.92728,1.097794 0.29955,3.468155 2.96764,3.158906 4.20996,3.046682 7.3308,-0.662216 z m 55.70317,1.147352 c -0.86558,-0.534959 -0.96468,-1.04505 -0.28467,-1.465317 0.57372,-0.35458 0.976,-1.53583 0.89395,-2.625 C 208.59511,38.275071 207.83998,38 203.2872,38 200.37924,38 198,38.435877 198,38.968615 c 0,0.532739 -0.675,0.709594 -1.5,0.393011 -1.93243,-0.741544 -1.92015,0.361082 0.0257,2.30693 0.83913,0.839134 2.1343,1.292157 2.87814,1.006716 0.74385,-0.28544 1.83574,-0.03569 2.42643,0.554999 0.76531,0.765307 1.42128,0.311732 2.28237,-1.578145 1.41507,-3.105738 2.93706,-3.558199 2.17572,-0.6468 -0.52857,2.021258 1.50057,5.53908 2.57518,4.464467 0.3182,-0.318196 -0.019,-0.947821 -0.74926,-1.399166 z M 220.75,45.310674 c -0.9625,-0.251527 -2.5375,-0.251527 -3.5,0 -0.9625,0.251528 -0.175,0.457323 1.75,0.457323 1.925,0 2.7125,-0.205795 1.75,-0.457323 z M 88,42.952028 C 88,41.518973 86.069301,40.84323 83.922036,41.524745 81.975297,42.142616 81.959732,42.25007 83.639093,43.478049 85.437346,44.792963 88,44.483851 88,42.952028 z m 130.49012,-2.271203 c 0.9694,2.990384 3.16496,3.680882 3.07843,0.96816 -0.0377,-1.181942 -0.51855,-2.479594 -1.06855,-2.883672 -1.5123,-1.111068 -5.70995,-0.914041 -5,0.234687 0.33992,0.55 0.17898,1 -0.35765,1 -0.53663,0 -1.15224,-0.529673 -1.36803,-1.177051 -0.5589,-1.676682 -2.78822,-0.03928 -2.70403,1.986068 0.0575,1.383557 0.20979,1.334179 0.83765,-0.271601 0.71289,-1.823237 0.90303,-1.755546 2.67797,0.953361 l 1.91061,2.915947 0.64331,-2.953362 c 0.59696,-2.740517 0.69427,-2.796193 1.35029,-0.772537 z M 130.45499,38.25 c 0.69676,-2.306187 -0.0428,-2.729122 -2.8732,-1.643011 -1.88094,0.721784 -2.04552,2.529281 -0.38179,4.193011 1.37454,1.374541 2.28472,0.661499 3.25499,-2.55 z m 25.73861,-2.623155 5.6936,-1.177231 -2.11892,-3.346615 c -2.07111,-3.271089 -2.24147,-3.333967 -7.54888,-2.786194 -2.98648,0.308232 -5.55618,0.700545 -5.71044,0.871808 -0.15426,0.171263 -0.6068,2.285198 -1.00564,4.697633 l -0.72515,4.386247 2.86091,-0.734209 c 1.57351,-0.403814 5.42304,-1.263962 8.55452,-1.911439 z m 44.77744,0.412215 c 0.80907,-0.511673 1.1221,-1.27925 0.69563,-1.705727 -0.42648,-0.426477 -1.1447,-0.177901 -1.59604,0.55239 -0.54785,0.886436 -1.03903,0.974428 -1.47766,0.264714 -0.36136,-0.584699 -1.31502,-0.810589 -2.11925,-0.501978 -0.80423,0.308611 -1.21326,0.963957 -0.90896,1.456326 0.71489,1.156709 3.5274,1.122517 5.40628,-0.06573 z M 222,36 c 0,-0.55 -0.47656,-1 -1.05902,-1 -0.58246,0 -0.7809,0.45 -0.44098,1 0.33992,0.55 0.81648,1 1.05902,1 C 221.80156,37 222,36.55 222,36 z m -16,-1 c 0.025,1.223527 0.18908,1.249928 0.89031,0.143237 0.5993,-0.945806 1.06688,-1.02153 1.54371,-0.25 1.0678,1.727742 2.13741,1.303005 2.13741,-0.848758 0,-1.524846 -0.58183,-1.887776 -2.64187,-1.647921 -3.44012,0.400542 -5.1223,1.482567 -4.32087,2.779303 0.41349,0.669038 0.94671,0.555679 1.501,-0.319098 C 205.81092,33.750072 205.97502,33.776473 206,35 z m 10.40688,0.150679 c 0.68236,-1.104091 -3.42206,-4.65988 -6.22493,-5.392847 -1.19898,-0.313539 -2.43196,-0.162318 -2.73997,0.336048 -0.30801,0.498366 0.61127,0.90612 2.04284,0.90612 1.92418,0 2.52624,0.456299 2.30902,1.75 -0.16419,0.977861 0.25769,1.639694 0.95616,1.5 0.6875,-0.1375 1.25,0.2 1.25,0.75 0,1.219065 1.68152,1.324334 2.40688,0.150679 z m -89.58674,-11.90515 c 0.40701,-2.866294 -2.41029,-4.083954 -4.53443,-1.959815 -2.12414,2.12414 -0.90648,4.941439 1.95982,4.534423 1.45196,-0.206179 2.36843,-1.12265 2.57461,-2.574608 z m 84.85997,-2.345585 c 0.8614,-0.29193 0.79388,-0.92419 -0.25,-2.341074 -1.39451,-1.892806 -1.4642,-1.894503 -2.79966,-0.06815 -1.01532,1.388529 -1.07999,2.185296 -0.25,3.080465 0.61575,0.664118 1.34455,0.874761 1.61955,0.468095 0.275,-0.406665 1.03105,-0.919366 1.68011,-1.139335 z M 126.73776,233.30832 c -0.96924,-0.25283 -1.50064,-0.88297 -1.1809,-1.40031 0.31973,-0.51735 1.05055,-0.65064 1.62404,-0.29621 0.57349,0.35444 1.41793,0.0373 1.87653,-0.70472 0.4586,-0.74204 1.09388,-1.0891 1.41174,-0.77125 0.70534,0.70534 -0.42855,3.9101 -1.32616,3.74817 -0.35365,-0.0638 -1.43602,-0.32286 -2.40525,-0.57568 z M 131,232.91015 c 0,-0.36589 0.63124,-1.18914 1.40275,-1.82944 1.0776,-0.89433 1.5035,-0.86477 1.83738,0.12755 0.34954,1.03885 0.76013,1.02305 2.09725,-0.0807 1.42362,-1.17517 1.66262,-1.15269 1.66262,0.15638 0,1.03649 0.64406,1.36039 2,1.00581 1.1,-0.28766 2,-0.82894 2,-1.20285 0,-0.94155 4.21646,-0.75536 5.7938,0.25584 0.75123,0.4816 1.90449,0.32262 2.75,-0.37909 1.14064,-0.94665 1.4562,-0.94212 1.4562,0.0209 0,0.71082 0.668,0.9731 1.58356,0.62177 1.00535,-0.38579 1.43124,-0.15101 1.16638,0.64301 -0.30107,0.90262 -3.6639,1.26117 -12.08356,1.28839 C 136.24987,233.55845 131,233.27605 131,232.91015 z m -24.25,-0.60595 c -3.16042,-0.50227 -3.61048,-1.89632 -0.89088,-2.75949 2.15392,-0.68362 5.14088,0.24453 5.14088,1.59746 0,0.51051 0.95207,0.41867 2.1157,-0.20409 1.6873,-0.90302 2.02604,-0.85952 1.67288,0.21481 -0.47055,1.43148 -3.52393,1.86879 -8.03858,1.15131 z m 10.39324,-0.19451 c -0.94581,-0.5993 -1.02153,-1.06688 -0.25,-1.54371 0.60872,-0.37621 1.10676,-0.15867 1.10676,0.48341 0,0.73809 0.89688,0.94232 2.43871,0.55535 1.3413,-0.33665 2.71786,-0.16043 3.05902,0.39159 0.76125,1.23172 -4.44296,1.32456 -6.35449,0.11336 z M 101,231.30534 c 0,-0.57269 -1.173104,-0.80374 -2.648625,-0.52168 -1.677206,0.32062 -2.414132,0.1269 -2.009268,-0.52818 0.351646,-0.56898 2.196501,-1.21629 4.099673,-1.43848 2.98787,-0.34881 3.30084,-0.19323 2.29224,1.13952 -0.64245,0.84891 -1.29542,1.73098 -1.45105,1.96015 C 101.12734,232.14583 101,231.87074 101,231.30534 z m 165.66688,-0.57535 c 0.40494,-0.65521 -1.15831,-0.84114 -4.42947,-0.52682 -3.76779,0.36203 -4.93385,0.16935 -4.57854,-0.75659 0.2622,-0.68329 -0.3548,-2.07579 -1.37113,-3.09446 C 253.65879,223.71711 251.65394,221 252.3386,221 c 0.32092,0 1.45353,0.93387 2.5169,2.07528 1.23681,1.32755 2.17286,1.68785 2.59798,1 1.11403,-1.80256 2.81185,-1.1979 2.28572,0.81402 -0.27174,1.03912 -0.14752,2.45002 0.27603,3.13535 1.05223,1.70254 5.98477,0.3816 5.98477,-1.60272 0,-0.84698 0.45,-1.26185 1,-0.92193 0.55,0.33992 1,1.74303 1,3.11803 0,1.41563 0.43469,2.23135 1.00217,1.88063 0.59069,-0.36507 0.7288,-2.33956 0.33637,-4.80902 -0.60813,-3.82672 -0.52169,-4.07076 0.99783,-2.8172 0.915,0.75485 1.66363,2.66735 1.66363,4.25 0,1.58266 0.45,2.87756 1,2.87756 0.55,0 1,0.34512 1,0.76693 0,0.42181 -1.79076,0.81389 -3.97946,0.87128 -2.45374,0.0643 -3.73953,-0.28387 -3.35366,-0.90822 z M 274.875,231 c -0.0688,-0.55 -0.20149,-1.5625 -0.29497,-2.25 -0.2418,-1.77826 2.47285,-5.83535 3.48568,-5.20939 0.46582,0.28789 0.57602,1.22944 0.2449,2.09234 -0.84126,2.19228 1.42146,3.3312 6.68939,3.36705 4.29698,0.0292 9.62387,1.85156 6,2.05258 -7.67403,0.42571 -9.73255,0.32046 -9.24154,-0.47252 0.3133,-0.50597 -0.17919,-0.63259 -1.09442,-0.28138 -0.98599,0.37836 -1.677,0.142 -1.69584,-0.58006 -0.0185,-0.70708 -0.58945,-0.48402 -1.36025,0.53138 -1.48746,1.95949 -2.54547,2.24984 -2.73295,0.75 z M 84,230 c 0,-0.55 0.45,-1 1,-1 0.55,0 1,0.45 1,1 0,0.55 -0.45,1 -1,1 -0.55,0 -1,-0.45 -1,-1 z m 3.5,0 c 0.339919,-0.55 1.068034,-1 1.618034,-1 0.55,0 0.721885,0.45 0.381966,1 -0.339919,0.55 -1.068034,1 -1.618034,1 -0.55,0 -0.721885,-0.45 -0.381966,-1 z m 4,0 c 0.339919,-0.55 0.816476,-1 1.059017,-1 C 92.801558,229 93,229.45 93,230 c 0,0.55 -0.476558,1 -1.059017,1 -0.582459,0 -0.780902,-0.45 -0.440983,-1 z M 81,229 c 0,-0.55 0.45,-1 1,-1 0.55,0 1,0.45 1,1 0,0.55 -0.45,1 -1,1 -0.55,0 -1,-0.45 -1,-1 z m 136,-0.2 c 0,-0.44 0.87344,-0.8 1.94098,-0.8 1.06754,0 2.16348,0.36 2.43541,0.8 0.27194,0.44 -0.6015,0.8 -1.94098,0.8 C 218.09593,229.6 217,229.24 217,228.8 z m 35.5,-1.8 c -0.85325,-1.65 -1.16585,-3 -0.69466,-3 0.47119,0 1.45056,1.10964 2.17639,2.46587 0.72584,1.35623 1.77141,2.1867 2.32349,1.84549 0.56814,-0.35112 0.69412,-0.1193 0.29027,0.53413 C 255.41974,230.74791 254.13988,230.17118 252.5,227 z M 58,228.11803 c 0,-0.55 0.45,-1.27811 1,-1.61803 0.55,-0.33992 1,-0.16803 1,0.38197 0,0.55 -0.45,1.27811 -1,1.61803 -0.55,0.33992 -1,0.16803 -1,-0.38197 z M 62.5,228 c 2.752484,-1.18278 3.731,-1.18278 3,0 -0.339919,0.55 -1.603976,0.96837 -2.809017,0.92971 C 60.578617,228.86195 60.571764,228.82859 62.5,228 z m 4.5,0 c 0,-0.55 0.45,-1 1,-1 0.55,0 1,0.45 1,1 0,0.55 -0.45,1 -1,1 -0.55,0 -1,-0.45 -1,-1 z m 4.269032,0.30701 c 0.972967,-0.25354 2.322967,-0.23687 3,0.0371 0.677032,0.27393 -0.119032,0.48137 -1.769032,0.46099 -1.65,-0.0204 -2.203936,-0.2445 -1.230968,-0.49804 z M 5,225.94098 c 0,-0.58246 0.45,-0.7809 1,-0.44098 0.55,0.33992 1,0.11492 1,-0.5 0,-0.61492 0.45,-0.83992 1,-0.5 0.55,0.33992 1,-0.11008 1,-1 0,-0.88992 0.45,-1.33992 1,-1 0.55,0.33992 1,0.22892 1,-0.24667 0,-0.47559 1.2375,-0.83965 2.75,-0.80902 2.190264,0.0444 2.693507,-0.35139 2.472448,-1.94431 -0.255191,-1.83888 -0.114207,-1.80981 1.75,0.36078 C 20.18002,222.43117 20.569477,224 19,224 c -0.55,0 -1,-0.525 -1,-1.16667 0,-0.64166 -0.289125,-0.87754 -0.642501,-0.52416 -0.353375,0.35337 -0.153304,1.23194 0.444604,1.95238 0.822212,0.9907 0.674185,1.32553 -0.6075,1.3741 -0.932031,0.0353 -2.819603,0.29114 -4.194603,0.56849 -1.375,0.27734 -1.931991,0.31081 -1.237757,0.0744 0.694234,-0.23644 1.006196,-0.84418 0.693249,-1.35054 -0.322908,-0.52247 -1.820449,-0.27349 -3.4625828,0.57569 C 5.5554453,227.28125 5,227.34208 5,225.94098 z m 18.194745,-0.67563 c 0.801952,-0.9663 1.362022,-1.09505 1.604114,-0.36877 0.204579,0.61373 0.783527,0.86152 1.286551,0.55063 C 26.588435,225.13633 27,225.30227 27,225.81598 c 0,0.51371 -1.133417,0.93402 -2.518704,0.93402 -2.113894,0 -2.32067,-0.23862 -1.286551,-1.48465 z M 260,226.60699 c 0,-0.21616 0.675,-0.65203 1.5,-0.96862 0.825,-0.31658 1.5,-0.13972 1.5,0.39301 0,0.53274 -0.675,0.96862 -1.5,0.96862 -0.825,0 -1.5,-0.17686 -1.5,-0.39301 z m 13.07895,-2.19032 c 0.048,-1.16495 0.28494,-1.4019 0.60416,-0.60417 0.28887,0.72187 0.25335,1.58437 -0.0789,1.91667 -0.33229,0.33229 -0.56864,-0.25834 -0.52522,-1.3125 z M 20.6,222.4 c -0.355892,-0.92744 -0.422077,-1.91126 -0.147077,-2.18626 0.275,-0.275 0.791185,0.25882 1.147077,1.18626 0.355892,0.92744 0.422077,1.91126 0.147077,2.18626 -0.275,0.275 -0.791185,-0.25882 -1.147077,-1.18626 z m 2.957298,-2.98176 C 22.490542,218.63821 20.853602,218 19.919654,218 c -0.933947,0 -2.760439,-0.88503 -4.05887,-1.96673 -2.854426,-2.37798 -1.250522,-2.69498 2.025538,-0.40034 1.673388,1.17209 2.530807,1.31018 3.038137,0.4893 0.475435,-0.76927 1.477694,-0.32306 3.061782,1.36312 2.700373,2.87442 2.443244,4.03308 -0.428943,1.93289 z M 38,216 c 0,-0.55 0.423442,-1 0.940983,-1 0.517541,0 1.219098,0.45 1.559017,1 0.339919,0.55 -0.08352,1 -0.940983,1 C 38.701558,217 38,216.55 38,216 z M 218.66667,203.33333 C 218.3,202.96667 218,201.65919 218,200.42783 c 0,-1.23135 -0.98053,-4.07582 -2.17896,-6.32104 -2.29378,-4.29731 -1.95018,-6.28878 0.70487,-4.08529 0.86583,0.71858 1.46202,2.2452 1.32486,3.3925 -0.13716,1.1473 0.30614,3.0985 0.98511,4.336 0.67897,1.2375 0.90365,2.25 0.4993,2.25 -0.40435,0 -0.19518,0.54 0.46482,1.2 0.66,0.66 1.2,1.56 1.2,2 0,0.97103 -1.41479,1.05188 -2.33333,0.13333 z M 207.86627,189.75 c -1.24845,-1.7875 -2.59341,-3.47951 -2.98881,-3.76002 -0.39539,-0.28051 -1.02757,-1.7399 -1.40485,-3.24309 -0.37728,-1.50319 -1.0828,-2.48781 -1.56783,-2.18804 -0.48503,0.29976 -0.61534,-0.14955 -0.28957,-0.99848 0.35549,-0.92639 -0.0824,-1.80243 -1.0953,-2.1911 -1.34305,-0.51538 -1.41528,-0.82022 -0.35376,-1.49312 1.04908,-0.66501 0.99265,-0.84879 -0.26428,-0.86084 -0.88741,-0.008 -2.39481,-1.78204 -3.38958,-3.98806 -0.9853,-2.18501 -2.10709,-3.77768 -2.49285,-3.53927 -0.77797,0.48082 -5.12438,-5.02149 -5.40055,-6.83678 -0.0963,-0.63316 -0.49408,-1.66119 -0.88391,-2.28451 -0.38983,-0.62332 -0.96142,-2.87332 -1.27022,-5 -0.30879,-2.12668 -0.76499,-4.46679 -1.01378,-5.20025 -0.24879,-0.73346 0.0602,-1.16271 0.68665,-0.9539 0.62645,0.20882 1.91451,2.36317 2.86237,4.78746 0.94786,2.42429 2.34812,4.61422 3.11169,4.86652 1.16461,0.38481 1.17303,0.19789 0.0522,-1.16009 C 190.80218,154.05655 191.32317,152 193.10285,152 c 0.54165,0 0.8526,0.7875 0.69099,1.75 -0.17245,1.02706 0.25368,1.63635 1.03152,1.47488 0.93558,-0.19421 1.12221,0.36495 0.6346,1.90127 -0.54948,1.73125 -0.36254,2.05044 0.91397,1.5606 1.33586,-0.51262 1.52744,-0.0121 1.14341,2.98739 -0.25373,1.98174 -0.68366,3.82552 -0.95542,4.09727 -0.27175,0.27176 0.55522,1.31949 1.83771,2.3283 1.28249,1.00881 3.37188,4.66157 4.64308,8.11724 1.2712,3.45568 3.62458,8.64555 5.22974,11.53305 3.26877,5.88015 3.0514,6.95046 -0.40618,2 z M 199,172 c -0.5887,-1.1 -1.29537,-2 -1.57037,-2 -0.275,0 -0.0183,0.9 0.57037,2 0.5887,1.1 1.29537,2 1.57037,2 0.275,0 0.0183,-0.9 -0.57037,-2 z m -5,-12 c 0,-0.55 -0.47656,-1 -1.05902,-1 -0.58246,0 -0.7809,0.45 -0.44098,1 0.33992,0.55 0.81648,1 1.05902,1 0.24254,0 0.44098,-0.45 0.44098,-1 z m 20.74167,27.87531 C 212.89944,186.84435 212.32926,184 213.96482,184 c 0.99229,0 3.4653,3.90321 2.85787,4.51064 -0.18664,0.18665 -1.1231,-0.0992 -2.08102,-0.63533 z m -2.075,-6.54198 C 212.3,180.96667 212,180.20167 212,179.63333 c 0,-0.6266 0.46577,-0.56756 1.18333,0.15 0.65084,0.65084 0.95084,1.41584 0.66667,1.7 -0.28417,0.28417 -0.81667,0.21667 -1.18333,-0.15 z M 64,175.16898 c 0,-1.26438 4.892297,-3.61002 5.746921,-2.75539 0.412464,0.41246 -0.122866,1.38814 -1.189623,2.16817 C 66.413459,176.14937 64,176.46035 64,175.16898 z m 18.75,-3.36342 c 2.368488,-2.36849 3.682715,-2.09677 2.66655,0.55131 C 85.06976,173.26059 83.834167,174 82.670789,174 L 80.555556,174 82.75,171.80556 z M 87,171.15499 c 0,-0.46476 0.9,-1.6595 2,-2.65499 1.587625,-1.43678 2,-1.50998 2,-0.35499 C 91,169.7135 89.101995,172 87.8,172 87.36,172 87,171.61974 87,171.15499 z M 146,163 c 0,-0.55 -0.9,-1 -2,-1 -1.1,0 -2,-0.43588 -2,-0.96862 0,-1.01551 1.81313,-0.51425 6,1.65877 2.45101,1.2721 2.45591,1.29765 0.25,1.30369 C 147.0125,163.99723 146,163.55 146,163 z m 64,-1 c 0,-0.55 0.47656,-1 1.05902,-1 0.58246,0 0.7809,0.45 0.44098,1 -0.33992,0.55 -0.81648,1 -1.05902,1 C 210.19844,163 210,162.55 210,162 z M 86.5,155 c 0.339919,-0.55 0.816476,-1 1.059017,-1 C 87.801558,154 88,154.45 88,155 c 0,0.55 -0.476558,1 -1.059017,1 -0.582459,0 -0.780902,-0.45 -0.440983,-1 z m 1.5,-2.48241 c 0,-0.35699 0.495,-1.57399 1.1,-2.70444 0.605,-1.13045 1.1,-3.55154 1.1,-5.38019 0,-2.24608 0.535348,-3.46696 1.65,-3.76289 1.448997,-0.3847 1.436815,-0.4522 -0.1,-0.55407 -2.10949,-0.13983 -2.25958,-1.4482 -0.348113,-3.03457 0.771038,-0.63991 1.658895,-2.18747 1.973016,-3.43903 0.622508,-2.48027 3.873101,-4.63472 7.392787,-4.89985 1.22777,-0.0925 2.23231,-0.5224 2.23231,-0.95535 0,-0.43296 0.93423,-0.7872 2.07606,-0.7872 2.04275,0 2.03874,0.0456 -0.25,2.84135 -1.88302,2.30017 -2.439,2.5425 -2.91902,1.2723 -0.481,-1.27281 -0.8317,-1.12295 -1.85748,0.79375 C 99.128859,133.62774 98.571573,133.92483 98,133 c -1.159317,-1.87581 -2.917518,1.91684 -3.576383,7.7147 -0.603005,5.30631 -3.244389,11.46566 -5.173617,12.06417 -0.6875,0.21329 -1.25,0.0957 -1.25,-0.26128 z M 213.875,148.5 c -0.0687,-0.275 -0.18814,-0.8375 -0.26531,-1.25 -0.32516,-1.73801 -1.83037,-3.25 -3.23543,-3.25 -0.82924,0 -2.9551,-1.10399 -4.72415,-2.4533 -2.20156,-1.67922 -5.02963,-2.62939 -8.96291,-3.01137 -5.71724,-0.55523 -5.76586,-0.53706 -9.56304,3.57526 -3.07069,3.32553 -3.93822,3.81634 -4.43899,2.51137 C 182.34285,143.72988 182.48452,143 183,143 c 0.51548,0 0.67821,-0.675 0.36163,-1.5 -0.31659,-0.825 -0.0775,-1.5 0.53138,-1.5 0.60885,0 1.10699,-0.675 1.10699,-1.5 0,-0.825 0.5625,-1.3875 1.25,-1.25 0.6875,0.1375 1.1429,-0.29631 1.012,-0.96401 -0.14723,-0.75097 0.39575,-0.97082 1.4236,-0.57639 1.27335,0.48863 1.50569,0.23127 0.9943,-1.10138 -0.55244,-1.43964 -0.28107,-1.61461 1.57639,-1.01643 1.23404,0.39741 2.91871,0.71317 3.74371,0.7017 0.825,-0.0115 2.05677,0.41813 2.73727,0.95469 0.68049,0.53657 1.9282,0.71043 2.77268,0.38638 0.84448,-0.32406 2.35021,0.1881 3.34606,1.13812 0.99586,0.95003 2.44816,1.87357 3.22732,2.05232 0.77917,0.17875 1.56667,0.74125 1.75,1.25 0.18334,0.50875 0.90109,0.925 1.59502,0.925 0.69392,0 1.94296,0.7875 2.77563,1.75 1.83484,2.1209 2.95954,6.25 1.7024,6.25 -0.49851,0 -0.96263,-0.225 -1.03138,-0.5 z M 119,133.42857 c 0,-1.94611 3.28517,-3.56562 5.77956,-2.84918 2.57069,0.73835 2.59659,0.80278 0.47044,1.17054 -1.2375,0.21404 -2.25,0.80787 -2.25,1.31962 0,0.51175 -0.9,0.93045 -2,0.93045 -1.1,0 -2,-0.25714 -2,-0.57143 z m 8.31626,-4.89286 c 0.53381,-1.62573 9.33347,-1.89088 9.94409,-0.29964 0.38841,1.01218 -0.79404,1.33536 -4.88587,1.33536 -3.27519,0 -5.26454,-0.40734 -5.05822,-1.03572 z m 11.39651,-0.15628 C 137.21241,126.87908 138.17799,126.5 143.5,126.5 c 3.21878,0 5.36389,0.41477 5.17183,1 -0.38455,1.17182 -8.91353,1.92497 -9.95906,0.87943 z"
     id="path3402" />
</svg>
